<svg xmlns="http://www.w3.org/2000/svg" viewBox="0 0 300.24 300.24"><defs><style>.cls-1,.cls-6{fill:#fff;}.cls-1,.cls-10,.cls-3,.cls-4,.cls-5,.cls-6,.cls-7,.cls-8,.cls-9{fill-rule:evenodd;}.cls-10,.cls-2{fill:#f8a05f;}.cls-3{fill:#d9dadb;}.cls-4{fill:#e40044;}.cls-5{fill:#ea6911;}.cls-6{stroke:#242462;}.cls-7{fill:#c5c7c8;}.cls-8{fill:#565757;}.cls-9{fill:#242462;}.cls-11{fill:none;}</style></defs><title>map_1</title><g id="Layer_2" data-name="Layer 2"><g id="Layer_1-2" data-name="Layer 1"><path class="cls-1" d="M97.2,28.8c.94-.93,1.58-1.69,1.58-1.69l.52-.52,2.33-.06.59-.64,1.81-.41s-.18-.82.58-.64c2.17.5,2.16-.23,3.85-.23a5.52,5.52,0,0,0,1.4-.47h1.57s.06.64,1.28.75,1.52-.11,1.52-.11l.11-.76s.94-.17,1.17.64,3.5,4.55,4.37,4.73,4,3.14,4.67,3.38,2.58,2.54,3.9,3.14,1.75,1.58,1.4,1.87-.4.93.58.93a17.5,17.5,0,0,0,4.67-.87c.53-.35,1.63-2,3.73-2.16s3,.12,3.62-.23-.18-1.05.52-1.05,1.17-.06,1.69.76.58.7,1.22.7,2.75-.41,3.1.75.46,1.17,1.22,1.17.29,1.58.18,2.1a17,17,0,0,0-.88,3.44c0,1-.87,2.68-1.28,2.68s-1.17-.47-1.4.47.11,1.16-.64,1.16-1.23-.23-1.23.53a4.83,4.83,0,0,1-.81,2.56c-.41.35-.64.88-1.63.88s-2.1-.41-2.1.17a12.79,12.79,0,0,0,.76,2.16c.05.35.4.41-.12.93s-.7.3-.58,1.11c.28,2,.5,2.22,2.85,2.22.52,0,1.22.34.64,1.16s-1.16,1-.64,1.69,3.38,2.1,1.05,3.15c-1.69.76-1.4.06-2.1.76s-1.4,1.57-2.15,1-1-.93-1-1.4-.11-1.51-.46-1.17a4.54,4.54,0,0,1-1.52.65s-1.57.29-.87,1a2.6,2.6,0,0,1,.7,1.86c0,1.69,2.13,1.95,1.63,3.38-.41,1.17-.12,1.23-.12,1.23s.88.29.76.93-.58,1.46-.12,2.16.7.76.7.76l1-1.58s1.23.47,1.28,1.22c.14,1.7,1.5,3.67,3.5,3.27.88-.18.53-.12,1.23.35s2.27,1.92,2.27,1.92.35,1.4,1.23,1.7,2.15.75,2.15.75l1.93,1.4,1.34.41s-2.57,1.52-2.86,2.28-1.81,1.75-1.81,1.75l-.58.75.06,1.34-.81.58v1.23a10.42,10.42,0,0,0-.76,2,6.18,6.18,0,0,1-.59,1.52v.87A15.68,15.68,0,0,1,151,98.88c.23.41.52-.41.52-.41a2,2,0,0,1,1.58.7,22.73,22.73,0,0,0,3.67,2.28l2,1.69,7.17,3.32,2.16.18c-.15,2.25,1.14,1.81,2.91,2.33l.76.12.7.93a3,3,0,0,0,1.46-1c.35-.65,1.81-.24,1.81-.24l.41,1.28,2.73-.81s-.11-1.28.41-.88a3.4,3.4,0,0,1,.82.94l3.56.52-.18,2.1a1.89,1.89,0,0,0,1.75.64c1.23-.12,1.17,1,1.46,1.23s.58,1,1.05,1a4.85,4.85,0,0,0,2.21-.65c.35-.35,1.35-.87,1.52-.23s-.53,1.34.23,1.52,2.1-.23,3.15-.06a10.29,10.29,0,0,1,3.61,1.46,2.61,2.61,0,0,0,2.45.29c.35-.18.3-1.52.82-1.28s.29.93.76,1a19.59,19.59,0,0,0,2.21.17c.76,0,.7.29,1.4.29s1-.46,1.93-.46a4.15,4.15,0,0,1,1.57.29l.41-1.34.58-1.75s-1.17-1.52-1.17-2.16v-2.57l-.05-2a8.06,8.06,0,0,0,.81-2.51c.06-1-.46-1.28.47-1.46s1.46-.06,2.27-.87,2.92-.41,2.8.52a30,30,0,0,1-.41,3.09c-.17.64-.75.93.06,1.69s1,1,.47,1.69-.82.7-.53,1.05,1,1.52,1.52,1.69a5.58,5.58,0,0,1,1.17.64l1.63-.35a8.89,8.89,0,0,0,2.45.94h2.56a3.29,3.29,0,0,0,1.75-.7c.82-.53,1.34-1,2.16-.53a7.29,7.29,0,0,0,2.68.47s5.25-.64,5.71-.64a15.94,15.94,0,0,0,2.57-.88l1,.12s.87-1.23.29-1.69a2.42,2.42,0,0,1-.64-1.52v-2a20.12,20.12,0,0,1-3.27.06c-.35-.17-.46-1.57-.46-1.57l.58-1.05-.52-.53,2,.18.46.7,1.35-.41,1.4-.7.93.41,1.57-.7.47-.64v-1.58l1.4-.52s1.81-1.34,2.1-1.52.41-2.1.41-2.1l1.1-1.28,1.75-.12,1.81-.23s.06.17.64-.82a16.65,16.65,0,0,1,1.69-2.21l1.28-2,1.75-.76.88.35.93.47,2.45.4.93.3h.82L266,88.68l1.47-1.4,1.22-.47,1.16-.06,1,.88s.88.35,0,1.4-.75,1.45-.75,1.45l.35.65.87-.29.94-1.4a12.12,12.12,0,0,1,1.34,1.86s.64.12.23.88a5.11,5.11,0,0,1-1.34,1.4s-.7,1.51-.18,1.63,1.4-.47,1.4-.47l2.62.35a11.59,11.59,0,0,1,2.92.59,1.59,1.59,0,0,1,1,1.57,12.47,12.47,0,0,0,.24,1.46l-1.23,1-1,.7-.87,1a4.79,4.79,0,0,0,.58,1.86c.41.47,1.81,1.69,1.81,1.69s.4,1-.3,1-1.86-1-1.86-1a2.06,2.06,0,0,0-2.57-1.11,9.67,9.67,0,0,0-2.62.88L270.54,107,269,108.5l-1.22.76c-.65.72-1.34,1.87-2.51,1.51-.76-.23-1,1.23-1,1.69a14.62,14.62,0,0,0,.52,2.16s.53,2.39.24,2.45-.7.06-.7.76.17,1.28-.12,1.4a10.64,10.64,0,0,0-1.34,2l-.93.52a1.69,1.69,0,0,0-.7,1.41c0,.7-.12,1.39.35,1.39s1.69,1.17.87,2.22a17.81,17.81,0,0,0-2.27,4.9l-.82,1.92-.35,1.69-.35.64-1.16-.87-1,.06h-2.16l-1.17-.29c-.64,0-.93.23-.64.75a20.64,20.64,0,0,1,.82,2.16l.06,3.09.23,2.16-.87.52-1.06-.17a18.75,18.75,0,0,0-.17,3.9,9.8,9.8,0,0,1,.35,1.29l.29,1.51-.52.82-1.4,1.75-1.4-1.28-1-.35-.35-1.87-.76-1.75-.93-1.57-.59-1.75.06-2.57-.52-1.75-.58-1.1-.53-.53s-.06.17-1,.17a2.17,2.17,0,0,0-1.34.3s1.17,1.16.81,1.69-.23.93-.52,1-1.22-.12-1,1,.35,1.92.35,1.92l-.82.7-.58.12-1-1.29-.64-1.16-.53-.41s-1.92-1.86-1.8-3.27a6.1,6.1,0,0,1,1-2.62s.76-.41,1.4-.81,1.8-.53,2.68-1.05a7.21,7.21,0,0,0,1.75-2l.58-1.17.29-2.16.18-.93h1.16l.06-1.17-1.69-1.16-2.62-.18a11,11,0,0,1-3.27.59c-1.63,0-5.19.81-7.23.58s-5.48-.94-5.42-1.58.12-2.15.12-2.15v-1.35l-.53-1.39s-.81-1.7-1.16-1.58-.47.64-.64,1.11-2.51-.29-2.51-.29l-1.22-.82-.36-1.4s-1.51-1.51-1.8-.52-.88,1.11-.88,1.11-2.39-3-3.32-3-.18.82-.18.82l.36.52.28,1.35s-.52,1.28-1.28,1.57a1.36,1.36,0,0,0-.75,1.22v1.23l.17.64s2.1-.17,2.1.12.52.82.52.82l.41,1h1.52l1.22,1.58s2,1.69.24,1.69-3,.06-3,.06l-.58,1.11-.29.75-1.64.29a4.26,4.26,0,0,0-.52,2.11,7.31,7.31,0,0,0,.7,2l1.92.65,2.28.46a2.07,2.07,0,0,1,.46,1.4c0,.94.18,2.22-.64,2.39s-.46.7-.52,1.34a1.76,1.76,0,0,0,.64,1.23l.81.52.18,1.52,1.57,1.1-.34,1.29a26.92,26.92,0,0,1,.7,2.62,10.85,10.85,0,0,0,.28,1.46l.82,2.39-1.05,2.39-2.1-.76L215,155l-1.11.11L212.76,154l-1.46-.76-.06.81-.58.94-.23,1.16-1.64,1.58-1.63.47-2.33.87a6.06,6.06,0,0,0-2,1.28c-.35.58-1.4,1.93-1.17,2.74s.76,3,.76,3l-1.75,3.09s-1.63,2.85-2.16,2.91A12.35,12.35,0,0,0,196,174s-6,2-6.7,2.45a10,10,0,0,0-1.75,2.1l-1.8,1-.82,2.21-1.87,2.57s-3.2,3.56-3.73,3.91-2.92,1.22-3.44,2.1-3.9,4.54-5.07,4.84a18.11,18.11,0,0,0-5.07,3.26c-.29.52-1.34,1.17-1.28,1.75s.87.93.11,1-.11,1-.11,1a1.6,1.6,0,0,1-1,1.34c-.93.35-1.86,1.4-3.38,1.4h-2.27l-1.34.06-1.11,2.62L153,210.36s.23-1.81-.82-1.64a22.22,22.22,0,0,1-2.44.23s-2.22,1.93-2.45,2.92-1.17,3.44-.94,5,.47,2.8.47,2.8.81,2,.52,2.51a4.28,4.28,0,0,0-.29,2.68c.18,1.34.41,3.38.41,3.38l.88,2s-.24,3.68-.41,4.38a40.22,40.22,0,0,1-2,5.71c-.59.93-2.22,2.57-2.69,2.51s-1-.76-1.11,0-.23.93.06,1.22,1.23,1,1.23,1a17.65,17.65,0,0,1,.46,3.15,10.58,10.58,0,0,1-.4,3.21c-.24.47-.12.58.06,1.17a9.44,9.44,0,0,1,.17,1.86v2.1l-.23.87h-2.33s-1.23-.58-1.87.24a8.07,8.07,0,0,0-1.05,2.39,6,6,0,0,1-1.34,1.75c-.76.58-1.46.87-1.46,2s.12,2.27.12,2.27l.81.7-2.62.18-1.81.75s-1.69.06-2.27,1-1.11,1-1.11,2,.06,2.44-.64,3.26a13.08,13.08,0,0,1-3.09,1.93l-2,.87s-3.45-1.23-3.68-1.81-4.37-5.65-4.37-5.65l-1.75-4a6.3,6.3,0,0,1,.53-2.09c.35-.41.06-2.1-.06-2.51s-1.69-3.21-1.69-3.21l-2.68-6.94s-1.93-6.06-3.09-6.88-4.44-7.28-4.78-9.21-.64-7.05-1.05-8-4.38-11.14-5.08-11.95-2.5-6.89-3-7.35-2-6.18-2.16-8.57-2-13.7-2-14.05-.47-3.56-.47-3.56a4,4,0,0,0-.17-2.68,5.9,5.9,0,0,1-.29-3v-3.91l.35-2.62a8.43,8.43,0,0,0,1.28-3.56,9.91,9.91,0,0,0-.93-4.49c-.35-.29-.12-3.09,1-3.67s-.88-1.11-.88-1.11-1,0,0-1,.59-1.23.59-1.23h-.76l-.64-.29v-1s2.21.12,2.56-.76,0-1,0-1l-2.27.41-1.69-.76-.59-.35-.69,1.11c-2.65,3.09,1.91,7.35-2.74,9.1-2,.77-7.79,3.26-9.74,3.14s-3.09-1.57-3.85-2.33-4.31-5.36-4.31-5.36l-2.74-3-1.81-2s-1.34-1.51-1.11-2.5a1,1,0,0,1,1.75-.41,4.67,4.67,0,0,1,.18,1.34l-.29.64s-.18-.17,1.34-.17a5.62,5.62,0,0,0,2.33-.41l1.75-.47.93-.58,1.34-.64,1.87-1.63,1.1-1,1.11-1,.82-.93,1-.76-.93-.06-.94.3-.93-.64s-1.52-.35-2,.58a4.86,4.86,0,0,1-1.4,1.57l-2,.64a11.38,11.38,0,0,1-3.21-.23c-.76-.35-2.27-.35-3.09-1.28a15.35,15.35,0,0,0-2.68-2.1l-.82-1.75a2,2,0,0,1,.23-1.86,4,4,0,0,1,2.22-1.81c1-.24.06-.41-1.22,0s-1.81.82-1.93,1.28-.05.64-1.22.64-.64-2.44.35-2.91a11.2,11.2,0,0,1,2.91-.64L58,134s-.47-2.27.46-2.27,2.63,0,2.63,0,2.33,0,2.79.06a3,3,0,0,1,1.87,1c.23.53.76.53,1.57.53s.94-.41,1.87-.64.23-.76,1.46-.76a22.44,22.44,0,0,0,2.27-.12,1.64,1.64,0,0,0-.12,1.05c.18.41.76.41,1.58.41s1-.82,1.75-.7,1.34-.58.87-1-.29-1.57-.29-1.57l.17-.88a9.63,9.63,0,0,0-.52-1.63,3.72,3.72,0,0,1-.23-1.34l-.24-1s-1.63-1.11-1.63-2.28.41-2.56-.76-2.56-1,.87-1.86.11a4.33,4.33,0,0,1-1.52-3c.12-.87.94-1.69,1-2.56s.41-2.28-1.8-2.4-3.33-1.57-3-3.09c.2-1.08,6.53-9.75,8.16-9.26s1.81.93,1.81,1.57.46,2.16,1.69,1.75,2.39-1.23,3.49-.88a4.73,4.73,0,0,0,3.5-.75c.7-.53,0-1.87.88-2.28a5.39,5.39,0,0,0,2.74-2c.93-1.34-.76-1.52,1.57-3s3.21-.82,4.2-1.87S96.27,89,96.68,88s0-1.93,1-2.57.93-1,2.1-1.22,1.52.23,2.1-.76-.94-1.52.17-2.39,2.45-2.39,3.27-3l3-2.15s-1.28.41-1.23-.76,1.29-1.87,1-2.51-1.23-2.09-1.23-2.09a1.91,1.91,0,0,1,1.4-2.22,21.45,21.45,0,0,0,5.54-2s1.05-.76-.23-1.28a9.39,9.39,0,0,0-3.21-.88,7.84,7.84,0,0,1-1.92-.35s1.16-2.45.35-2.45a15.25,15.25,0,0,1-4.2-1.34c-.7-.41-2.33-1.46-2.68-1.69a1,1,0,0,1-.47-.93,6.31,6.31,0,0,0-.17-1.17c-.49-.76.67-2.63,0-4.25l-.3-1.58-.17-1.22-.23-1.46s-.88-1.11-.41-1.92,1.75-.82,2.45-.82.17-1.17.17-1.17l1.34-.7S106,42.8,106,42s.35-1.87-.59-2-2.68-.29-2.62-.76,1-1.16,1-1.69-.64-1.11-2.56-1.11-1.46-1.63-1.7-2.39-2-.41-2-.41h-2.4C95.34,30.2,95.09,30.92,97.2,28.8Z"/><path class="cls-2" d="M97.2,28.8c.94-.93,1.58-1.69,1.58-1.69l.52-.52,2.33-.06.59-.64,1.81-.41s-.18-.82.58-.64c2.17.5,2.16-.23,3.85-.23a5.52,5.52,0,0,0,1.4-.47h1.57s.06.64,1.28.75,1.52-.11,1.52-.11l.11-.76s.94-.17,1.17.64,3.5,4.55,4.37,4.73,4,3.14,4.67,3.38,2.58,2.54,3.9,3.14,1.75,1.58,1.4,1.87-.4.93.58.93a17.5,17.5,0,0,0,4.67-.87c.53-.35,1.63-2,3.73-2.16s3,.12,3.62-.23-.18-1.05.52-1.05,1.17-.06,1.69.76.58.7,1.22.7,2.75-.41,3.1.75.46,1.17,1.22,1.17.29,1.58.18,2.1a17,17,0,0,0-.88,3.44c0,1-.87,2.68-1.28,2.68s-1.17-.47-1.4.47.11,1.16-.64,1.16-1.23-.23-1.23.53a4.83,4.83,0,0,1-.81,2.56c-.41.35-.64.88-1.63.88s-2.1-.41-2.1.17a12.79,12.79,0,0,0,.76,2.16c.05.35.4.41-.12.93s-.7.3-.58,1.11c.28,2,.5,2.22,2.85,2.22.52,0,1.22.34.64,1.16s-1.16,1-.64,1.69,3.38,2.1,1.05,3.15c-1.69.76-1.4.06-2.1.76s-1.4,1.57-2.15,1-1-.93-1-1.4-.11-1.51-.46-1.17a4.54,4.54,0,0,1-1.52.65s-1.57.29-.87,1a2.6,2.6,0,0,1,.7,1.86c0,1.69,2.13,1.95,1.63,3.38-.41,1.17-.12,1.23-.12,1.23s.88.29.76.93-.58,1.46-.12,2.16.7.76.7.76l1-1.58s1.23.47,1.28,1.22c.14,1.7,1.5,3.67,3.5,3.27.88-.18.53-.12,1.23.35s2.27,1.92,2.27,1.92.35,1.4,1.23,1.7,2.15.75,2.15.75l1.93,1.4,1.34.41s-2.57,1.52-2.86,2.28-1.81,1.75-1.81,1.75l-.58.75.06,1.34-.81.58v1.23a10.42,10.42,0,0,0-.76,2,6.18,6.18,0,0,1-.59,1.52v.87A15.68,15.68,0,0,1,151,98.88c.23.41.52-.41.52-.41a2,2,0,0,1,1.58.7,22.73,22.73,0,0,0,3.67,2.28l2,1.69,7.17,3.32,2.16.18c-.15,2.25,1.14,1.81,2.91,2.33l.76.12.7.93a3,3,0,0,0,1.46-1c.35-.65,1.81-.24,1.81-.24l.41,1.28,2.73-.81s-.11-1.28.41-.88a3.4,3.4,0,0,1,.82.94l3.56.52-.18,2.1a1.89,1.89,0,0,0,1.75.64c1.23-.12,1.17,1,1.46,1.23s.58,1,1.05,1a4.85,4.85,0,0,0,2.21-.65c.35-.35,1.35-.87,1.52-.23s-.53,1.34.23,1.52,2.1-.23,3.15-.06a10.29,10.29,0,0,1,3.61,1.46,2.61,2.61,0,0,0,2.45.29c.35-.18.3-1.52.82-1.28s.29.93.76,1a19.59,19.59,0,0,0,2.21.17c.76,0,.7.29,1.4.29s1-.46,1.93-.46a4.15,4.15,0,0,1,1.57.29l.41-1.34.58-1.75s-1.17-1.52-1.17-2.16v-2.57l-.05-2a8.06,8.06,0,0,0,.81-2.51c.06-1-.46-1.28.47-1.46s1.46-.06,2.27-.87,2.92-.41,2.8.52a30,30,0,0,1-.41,3.09c-.17.64-.75.93.06,1.69s1,1,.47,1.69-.82.7-.53,1.05,1,1.52,1.52,1.69a5.58,5.58,0,0,1,1.17.64l1.63-.35a8.89,8.89,0,0,0,2.45.94h2.56a3.29,3.29,0,0,0,1.75-.7c.82-.53,1.34-1,2.16-.53a7.29,7.29,0,0,0,2.68.47s5.25-.64,5.71-.64a15.94,15.94,0,0,0,2.57-.88l1,.12s.87-1.23.29-1.69a2.42,2.42,0,0,1-.64-1.52v-2a20.12,20.12,0,0,1-3.27.06c-.35-.17-.46-1.57-.46-1.57l.58-1.05-.52-.53,2,.18.46.7,1.35-.41,1.4-.7.93.41,1.57-.7.47-.64v-1.58l1.4-.52s1.81-1.34,2.1-1.52.41-2.1.41-2.1l1.1-1.28,1.75-.12,1.81-.23s.06.17.64-.82a16.65,16.65,0,0,1,1.69-2.21l1.28-2,1.75-.76.88.35.93.47,2.45.4.93.3h.82L266,88.68l1.47-1.4,1.22-.47,1.16-.06,1,.88s.88.35,0,1.4-.75,1.45-.75,1.45l.35.65.87-.29.94-1.4a12.12,12.12,0,0,1,1.34,1.86s.64.12.23.88a5.11,5.11,0,0,1-1.34,1.4s-.7,1.51-.18,1.63,1.4-.47,1.4-.47l2.62.35a11.59,11.59,0,0,1,2.92.59,1.59,1.59,0,0,1,1,1.57,12.47,12.47,0,0,0,.24,1.46l-1.23,1-1,.7-.87,1a4.79,4.79,0,0,0,.58,1.86c.41.47,1.81,1.69,1.81,1.69s.4,1-.3,1-1.86-1-1.86-1a2.06,2.06,0,0,0-2.57-1.11,9.67,9.67,0,0,0-2.62.88L270.54,107,269,108.5l-1.22.76c-.65.72-1.34,1.87-2.51,1.51-.76-.23-1,1.23-1,1.69a14.62,14.62,0,0,0,.52,2.16s.53,2.39.24,2.45-.7.06-.7.76.17,1.28-.12,1.4a10.64,10.64,0,0,0-1.34,2l-.93.52a1.69,1.69,0,0,0-.7,1.41c0,.7-.12,1.39.35,1.39s1.69,1.17.87,2.22a17.81,17.81,0,0,0-2.27,4.9l-.82,1.92-.35,1.69-.35.64-1.16-.87-1,.06h-2.16l-1.17-.29c-.64,0-.93.23-.64.75a20.64,20.64,0,0,1,.82,2.16l.06,3.09.23,2.16-.87.52-1.06-.17a18.75,18.75,0,0,0-.17,3.9,9.8,9.8,0,0,1,.35,1.29l.29,1.51-.52.82-1.4,1.75-1.4-1.28-1-.35-.35-1.87-.76-1.75-.93-1.57-.59-1.75.06-2.57-.52-1.75-.58-1.1-.53-.53s-.06.17-1,.17a2.17,2.17,0,0,0-1.34.3s1.17,1.16.81,1.69-.23.93-.52,1-1.22-.12-1,1,.35,1.92.35,1.92l-.82.7-.58.12-1-1.29-.64-1.16-.53-.41s-1.92-1.86-1.8-3.27a6.1,6.1,0,0,1,1-2.62s.76-.41,1.4-.81,1.8-.53,2.68-1.05a7.21,7.21,0,0,0,1.75-2l.58-1.17.29-2.16.18-.93h1.16l.06-1.17-1.69-1.16-2.62-.18a11,11,0,0,1-3.27.59c-1.63,0-5.19.81-7.23.58s-5.48-.94-5.42-1.58.12-2.15.12-2.15v-1.35l-.53-1.39s-.81-1.7-1.16-1.58-.47.64-.64,1.11-2.51-.29-2.51-.29l-1.22-.82-.36-1.4s-1.51-1.51-1.8-.52-.88,1.11-.88,1.11-2.39-3-3.32-3-.18.82-.18.82l.36.52.28,1.35s-.52,1.28-1.28,1.57a1.36,1.36,0,0,0-.75,1.22v1.23l.17.64s2.1-.17,2.1.12.52.82.52.82l.41,1h1.52l1.22,1.58s2,1.69.24,1.69-3,.06-3,.06l-.58,1.11-.29.75-1.64.29a4.26,4.26,0,0,0-.52,2.11,7.31,7.31,0,0,0,.7,2l1.92.65,2.28.46a2.07,2.07,0,0,1,.46,1.4c0,.94.18,2.22-.64,2.39s-.46.7-.52,1.34a1.76,1.76,0,0,0,.64,1.23l.81.52.18,1.52,1.57,1.1-.34,1.29a26.92,26.92,0,0,1,.7,2.62,10.85,10.85,0,0,0,.28,1.46l.82,2.39-1.05,2.39-2.1-.76L215,155l-1.11.11L212.76,154l-1.46-.76-.06.81-.58.94-.23,1.16-1.64,1.58-1.63.47-2.33.87a6.06,6.06,0,0,0-2,1.28c-.35.58-1.4,1.93-1.17,2.74s.76,3,.76,3l-1.75,3.09s-1.63,2.85-2.16,2.91A12.35,12.35,0,0,0,196,174s-6,2-6.7,2.45a10,10,0,0,0-1.75,2.1l-1.8,1-.82,2.21-1.87,2.57s-3.2,3.56-3.73,3.91-2.92,1.22-3.44,2.1-3.9,4.54-5.07,4.84a18.11,18.11,0,0,0-5.07,3.26c-.29.52-1.34,1.17-1.28,1.75s.87.93.11,1-.11,1-.11,1a1.6,1.6,0,0,1-1,1.34c-.93.35-1.86,1.4-3.38,1.4h-2.27l-1.34.06-1.11,2.62L153,210.36s.23-1.81-.82-1.64a22.22,22.22,0,0,1-2.44.23s-2.22,1.93-2.45,2.92-1.17,3.44-.94,5,.47,2.8.47,2.8.81,2,.52,2.51a4.28,4.28,0,0,0-.29,2.68c.18,1.34.41,3.38.41,3.38l.88,2s-.24,3.68-.41,4.38a40.22,40.22,0,0,1-2,5.71c-.59.93-2.22,2.57-2.69,2.51s-1-.76-1.11,0-.23.93.06,1.22,1.23,1,1.23,1a17.65,17.65,0,0,1,.46,3.15,10.58,10.58,0,0,1-.4,3.21c-.24.47-.12.58.06,1.17a9.44,9.44,0,0,1,.17,1.86v2.1l-.23.87h-2.33s-1.23-.58-1.87.24a8.07,8.07,0,0,0-1.05,2.39,6,6,0,0,1-1.34,1.75c-.76.58-1.46.87-1.46,2s.12,2.27.12,2.27l.81.7-2.62.18-1.81.75s-1.69.06-2.27,1-1.11,1-1.11,2,.06,2.44-.64,3.26a13.08,13.08,0,0,1-3.09,1.93l-2,.87s-3.45-1.23-3.68-1.81-4.37-5.65-4.37-5.65l-1.75-4a6.3,6.3,0,0,1,.53-2.09c.35-.41.06-2.1-.06-2.51s-1.69-3.21-1.69-3.21l-2.68-6.94s-1.93-6.06-3.09-6.88-4.44-7.28-4.78-9.21-.64-7.05-1.05-8-4.38-11.14-5.08-11.95-2.5-6.89-3-7.35-2-6.18-2.16-8.57-2-13.7-2-14.05-.47-3.56-.47-3.56a4,4,0,0,0-.17-2.68,5.9,5.9,0,0,1-.29-3v-3.91l.35-2.62a8.43,8.43,0,0,0,1.28-3.56,9.91,9.91,0,0,0-.93-4.49c-.35-.29-.12-3.09,1-3.67s-.88-1.11-.88-1.11-1,0,0-1,.59-1.23.59-1.23h-.76l-.64-.29v-1s2.21.12,2.56-.76,0-1,0-1l-2.27.41-1.69-.76-.59-.35-.69,1.11c-2.65,3.09,1.91,7.35-2.74,9.1-2,.77-7.79,3.26-9.74,3.14s-3.09-1.57-3.85-2.33-4.31-5.36-4.31-5.36l-2.74-3-1.81-2s-1.34-1.51-1.11-2.5a1,1,0,0,1,1.75-.41,4.67,4.67,0,0,1,.18,1.34l-.29.64s-.18-.17,1.34-.17a5.62,5.62,0,0,0,2.33-.41l1.75-.47.93-.58,1.34-.64,1.87-1.63,1.1-1,1.11-1,.82-.93,1-.76-.93-.06-.94.3-.93-.64s-1.52-.35-2,.58a4.86,4.86,0,0,1-1.4,1.57l-2,.64a11.38,11.38,0,0,1-3.21-.23c-.76-.35-2.27-.35-3.09-1.28a15.35,15.35,0,0,0-2.68-2.1l-.82-1.75a2,2,0,0,1,.23-1.86,4,4,0,0,1,2.22-1.81c1-.24.06-.41-1.22,0s-1.81.82-1.93,1.28-.05.64-1.22.64-.64-2.44.35-2.91a11.2,11.2,0,0,1,2.91-.64L58,134s-.47-2.27.46-2.27,2.63,0,2.63,0,2.33,0,2.79.06a3,3,0,0,1,1.87,1c.23.53.76.53,1.57.53s.94-.41,1.87-.64.23-.76,1.46-.76a22.44,22.44,0,0,0,2.27-.12,1.64,1.64,0,0,0-.12,1.05c.18.41.76.41,1.58.41s1-.82,1.75-.7,1.34-.58.87-1-.29-1.57-.29-1.57l.17-.88a9.63,9.63,0,0,0-.52-1.63,3.72,3.72,0,0,1-.23-1.34l-.24-1s-1.63-1.11-1.63-2.28.41-2.56-.76-2.56-1,.87-1.86.11a4.33,4.33,0,0,1-1.52-3c.12-.87.94-1.69,1-2.56s.41-2.28-1.8-2.4-3.33-1.57-3-3.09c.2-1.08,6.53-9.75,8.16-9.26s1.81.93,1.81,1.57.46,2.16,1.69,1.75,2.39-1.23,3.49-.88a4.73,4.73,0,0,0,3.5-.75c.7-.53,0-1.87.88-2.28a5.39,5.39,0,0,0,2.74-2c.93-1.34-.76-1.52,1.57-3s3.21-.82,4.2-1.87S96.27,89,96.68,88s0-1.93,1-2.57.93-1,2.1-1.22,1.52.23,2.1-.76-.94-1.52.17-2.39,2.45-2.39,3.27-3l3-2.15s-1.28.41-1.23-.76,1.29-1.87,1-2.51-1.23-2.09-1.23-2.09a1.91,1.91,0,0,1,1.4-2.22,21.45,21.45,0,0,0,5.54-2s1.05-.76-.23-1.28a9.39,9.39,0,0,0-3.21-.88,7.84,7.84,0,0,1-1.92-.35s1.16-2.45.35-2.45a15.25,15.25,0,0,1-4.2-1.34c-.7-.41-2.33-1.46-2.68-1.69a1,1,0,0,1-.47-.93,6.31,6.31,0,0,0-.17-1.17c-.49-.76.67-2.63,0-4.25l-.3-1.58-.17-1.22-.23-1.46s-.88-1.11-.41-1.92,1.75-.82,2.45-.82.17-1.17.17-1.17l1.34-.7S106,42.8,106,42s.35-1.87-.59-2-2.68-.29-2.62-.76,1-1.16,1-1.69-.64-1.11-2.56-1.11-1.46-1.63-1.7-2.39-2-.41-2-.41h-2.4C95.34,30.2,95.09,30.92,97.2,28.8Z"/><path class="cls-3" d="M90.34,141l2,1.47,9.75,6L91,178.55l14.36,35.16,19.55,14.74,4.39,25.62,11.24-21.82-8.66-20.2,35.42-22,18.28-19.86-1.94-40.63L168,117.21,128,97.88l-21,14Zm37.5-44.75L106,110.71l-17.6,30.6,3.19,2.33,8.78,5.4L89.47,178.52l14.62,36,19.53,14.9,4.67,27.32,1.08.1L142,232.28l-8.31-19.89,34.89-21.34,18.54-20.17-2.18-42.21-16.46-12.94Z"/><path class="cls-3" d="M128.09,94.75l-22.63,15L87,141.66l4.21,3.07,7.93,4.88L88.45,178.52l14.88,36.77,19.48,15.05,5,28.92,2.76.32-.1-2.09,13.78-26.17-8.62-18.62,33.21-19.56,20-21.61-2.39-43.6-17.14-13.47Zm-.12-1.6-23.43,15.53L85.06,142l5.33,3.89,7,4.31L87,178.5l15.13,37.58,19.45,15.2,5,29.26,5.45.62-.16-3.36,13.76-26.52-8.12-18.34,32.35-18.84,20.39-21.88-2.61-45.11-17.89-14.06Z"/><path class="cls-1" d="M170.74,116.82a.48.48,0,0,0,0-.95A.48.48,0,0,0,170.74,116.82Z"/><path class="cls-4" d="M89.45,175.11A3.48,3.48,0,1,1,86,178.59,3.48,3.48,0,0,1,89.45,175.11Z"/><path class="cls-1" d="M89.45,176.28a2.31,2.31,0,1,1-2.31,2.31A2.3,2.3,0,0,1,89.45,176.28Z"/><path class="cls-5" d="M103.75,211.32a3.48,3.48,0,1,1-3.48,3.48A3.48,3.48,0,0,1,103.75,211.32Z"/><path class="cls-6" d="M103.75,212.49a2.31,2.31,0,1,1-2.31,2.31A2.31,2.31,0,0,1,103.75,212.49Z"/><path class="cls-5" d="M123,226.4a3.48,3.48,0,1,1-3.48,3.48A3.48,3.48,0,0,1,123,226.4Z"/><path class="cls-6" d="M123,227.57a2.31,2.31,0,1,1-2.31,2.31A2.32,2.32,0,0,1,123,227.57Z"/><path class="cls-5" d="M129.33,255.37a3.48,3.48,0,1,1-3.47,3.48A3.48,3.48,0,0,1,129.33,255.37Z"/><path class="cls-6" d="M129.33,256.53a2.32,2.32,0,1,1-2.31,2.32A2.32,2.32,0,0,1,129.33,256.53Z"/><path class="cls-5" d="M142.24,228.23a3.48,3.48,0,1,1-3.48,3.48A3.48,3.48,0,0,1,142.24,228.23Z"/><path class="cls-6" d="M142.24,229.4a2.31,2.31,0,1,1-2.31,2.31A2.3,2.3,0,0,1,142.24,229.4Z"/><path class="cls-5" d="M168.56,188.53a3.48,3.48,0,1,1-3.48,3.48A3.48,3.48,0,0,1,168.56,188.53Z"/><path class="cls-6" d="M168.56,189.7a2.31,2.31,0,1,1-2.31,2.31A2.3,2.3,0,0,1,168.56,189.7Z"/><path class="cls-5" d="M187.17,167.48a3.48,3.48,0,1,1-3.48,3.48A3.48,3.48,0,0,1,187.17,167.48Z"/><path class="cls-6" d="M187.17,168.65a2.31,2.31,0,1,1-2.31,2.31A2.3,2.3,0,0,1,187.17,168.65Z"/><path class="cls-5" d="M185,125.27a3.48,3.48,0,1,1-3.48,3.48A3.48,3.48,0,0,1,185,125.27Z"/><path class="cls-6" d="M185,126.44a2.31,2.31,0,1,1-2.31,2.31A2.3,2.3,0,0,1,185,126.44Z"/><path class="cls-5" d="M168.26,111.36a3.48,3.48,0,1,1-3.48,3.48A3.48,3.48,0,0,1,168.26,111.36Z"/><path class="cls-6" d="M168.26,112.53a2.31,2.31,0,1,1-2.31,2.31A2.3,2.3,0,0,1,168.26,112.53Z"/><path class="cls-5" d="M128.22,91.32a3.48,3.48,0,1,1-3.48,3.47A3.47,3.47,0,0,1,128.22,91.32Z"/><path class="cls-6" d="M128.22,92.48a2.32,2.32,0,1,1-2.31,2.31A2.32,2.32,0,0,1,128.22,92.48Z"/><path class="cls-5" d="M105.42,107.22a3.48,3.48,0,1,1-3.48,3.48A3.48,3.48,0,0,1,105.42,107.22Z"/><path class="cls-6" d="M105.42,108.39a2.31,2.31,0,1,1-2.31,2.31A2.32,2.32,0,0,1,105.42,108.39Z"/><path class="cls-5" d="M86.15,139.22a3.48,3.48,0,1,1-3.48,3.48A3.48,3.48,0,0,1,86.15,139.22Z"/><path class="cls-6" d="M86.15,140.39a2.31,2.31,0,1,1-2.31,2.31A2.31,2.31,0,0,1,86.15,140.39Z"/><path class="cls-7" d="M122.92,94.49l4.44,6c-.24.18-.48.36-.73.53-1.47-2-2.95-4-4.43-6Z"/><path class="cls-7" d="M107.58,104.49l4.43,6-.72.52q-2.22-3-4.43-6Z"/><path class="cls-7" d="M100.06,112.85l6.31,4-.48.75-6.31-4Z"/><path class="cls-7" d="M86.59,136.07q3.16,2,6.31,4l-.48.76-6.31-4C86.28,136.57,86.43,136.32,86.59,136.07Z"/><path class="cls-7" d="M89.23,147.05l3.91-6.38.76.47L90,147.52C89.74,147.36,89.49,147.2,89.23,147.05Z"/><path class="cls-7" d="M91.47,148.73l3.9-6.37.76.46-3.9,6.38Z"/><path class="cls-7" d="M93.84,150.22c1.31-2.12,2.61-4.25,3.91-6.37l.76.46-3.9,6.38Z"/><path class="cls-7" d="M95.76,150.34c2.32-.91,4.65-1.81,7-2.7.11.27.22.55.32.83l-7,2.7C96,150.89,95.86,150.61,95.76,150.34Z"/><path class="cls-7" d="M95,151.4l7.19,2.06c-.08.28-.17.57-.25.86l-7.19-2.06C94.79,152,94.87,151.69,95,151.4Z"/><path class="cls-7" d="M87.29,172.37l7.06,2.45c-.1.28-.2.56-.29.84L87,173.21Z"/><path class="cls-7" d="M87.52,184.71l6.87-3,.35.83-6.87,2.94C87.75,185.26,87.63,185,87.52,184.71Z"/><path class="cls-7" d="M98.12,211l6.87-3,.36.82-6.88,3C98.36,211.57,98.24,211.29,98.12,211Z"/><path class="cls-7" d="M105,220.71q2.37-2.9,4.76-5.77l.69.57-4.76,5.77Z"/><path class="cls-7" d="M116.36,229.31l4.77-5.77.68.57-4.76,5.77Z"/><path class="cls-7" d="M120.34,235l7.38-1.2.15.88-7.38,1.2C120.43,235.59,120.39,235.29,120.34,235Z"/><path class="cls-7" d="M123.53,252.94l7.37-1.21.15.89-7.39,1.2C123.62,253.53,123.57,253.23,123.53,252.94Z"/><path class="cls-7" d="M135.68,254.49q-3.31-1.74-6.61-3.5l-.42.79,6.61,3.5Z"/><path class="cls-7" d="M143.94,237.52l-6.61-3.5-.42.78,6.61,3.5Z"/><path class="cls-7" d="M144.11,224.84l-6.83,3c.12.27.24.54.37.81l6.83-3C144.36,225.39,144.23,225.12,144.11,224.84Z"/><path class="cls-7" d="M138.91,213.54,132,216.45c.12.28.23.55.35.82l6.89-2.91C139.14,214.09,139,213.81,138.91,213.54Z"/><path class="cls-7" d="M140.54,213.42l-4-6.28-.75.48,4,6.29Z"/><path class="cls-7" d="M166.68,197.46l-4.05-6.28-.75.48,4.05,6.29Z"/><path class="cls-7" d="M138.44,212.42l-7.45-.65c0,.29-.05.59-.07.89l7.45.65C138.39,213,138.42,212.72,138.44,212.42Z"/><path class="cls-7" d="M175.33,190.3l-5.57-5-.59.67,5.56,5Z"/><path class="cls-7" d="M187.44,177.21l-5.57-5-.6.67,5.57,5Z"/><path class="cls-7" d="M191.54,164.87l-7.47.35c0,.3,0,.6.05.9l7.46-.36C191.57,165.46,191.55,165.16,191.54,164.87Z"/><path class="cls-7" d="M189.7,133.1l-7.47.36c0,.3,0,.59,0,.89l7.47-.35C189.72,133.7,189.71,133.4,189.7,133.1Z"/><path class="cls-7" d="M183.47,121.41l-4.83,5.71.68.58,4.83-5.71C183.92,121.8,183.69,121.61,183.47,121.41Z"/><path class="cls-7" d="M174.37,114.78l-4.83,5.71.69.57,4.82-5.71Z"/><path class="cls-7" d="M164.51,108.82l-3.5,6.61.79.42q1.75-3.3,3.49-6.61Z"/><path class="cls-7" d="M134.13,94.14q-1.74,3.31-3.49,6.61l.79.42c1.16-2.2,2.33-4.4,3.49-6.61Z"/><polygon class="cls-4" points="95.19 193.76 90.54 192.84 89.93 191.44 94.58 192.36 97.12 188.34 97.73 189.75 95.19 193.76"/><path class="cls-8" d="M58.72,192H59v.84h0a.49.49,0,0,1,.18-.17.63.63,0,0,1,.26-.07.52.52,0,0,1,.4.15.56.56,0,0,1,.14.42V194H59.7v-.83c0-.25-.1-.38-.33-.38a.33.33,0,0,0-.27.14.49.49,0,0,0-.11.31V194h-.27Zm-.47,2.08A.39.39,0,0,1,58,194a.37.37,0,0,1-.12-.29v-.79H57.6v-.24h.25v-.43h.26v.43h.35v.24h-.35v.7a.24.24,0,0,0,.06.19.21.21,0,0,0,.12.05h.12l.08.23A.57.57,0,0,1,58.25,194.06Zm-6.2-9.38h.27v.85h0a.52.52,0,0,1,.18-.18.63.63,0,0,1,.26-.07.51.51,0,0,1,.4.15.61.61,0,0,1,.14.42v.89H53v-.83c0-.25-.11-.38-.33-.38a.32.32,0,0,0-.27.13.49.49,0,0,0-.11.31v.77h-.27Zm-.47,2.08a.43.43,0,0,1-.28-.1.39.39,0,0,1-.12-.3v-.79h-.25v-.24h.25v-.43h.26v.43h.35v.24h-.35v.7c0,.1,0,.16.06.19a.15.15,0,0,0,.12,0h.06l.06,0,.08.23A.61.61,0,0,1,51.58,186.76Zm29.48,7.33-1.76,4h-.55l.66-1.42-1.16-2.63h.57l.84,2h0l.82-2Zm-4.13,2.81h-.52v-2.81h.5v.46h0a.85.85,0,0,1,.33-.38.89.89,0,0,1,.49-.16.88.88,0,0,1,.39.07l-.16.51a1,1,0,0,0-.3,0,.66.66,0,0,0-.52.24.8.8,0,0,0-.23.56ZM74.55,194a1.33,1.33,0,0,1,.92.31,1.11,1.11,0,0,1,.34.86v1.73h-.5v-.39h0a1,1,0,0,1-.87.48,1.16,1.16,0,0,1-.78-.27.9.9,0,0,1-.31-.69.83.83,0,0,1,.33-.69,1.4,1.4,0,0,1,.88-.26,1.64,1.64,0,0,1,.78.17v-.12a.63.63,0,0,0-.22-.47.75.75,0,0,0-.51-.19.82.82,0,0,0-.7.37l-.47-.29A1.3,1.3,0,0,1,74.55,194Zm-.68,2a.46.46,0,0,0,.17.35.65.65,0,0,0,.41.13.84.84,0,0,0,.59-.24.77.77,0,0,0,.27-.58,1.11,1.11,0,0,0-.69-.19.91.91,0,0,0-.54.15A.46.46,0,0,0,73.87,196Zm-1,.86h-.51v-.39h0a.9.9,0,0,1-.37.35,1.08,1.08,0,0,1-.52.13,1,1,0,0,1-.79-.29,1.17,1.17,0,0,1-.28-.84v-1.77h.52v1.74a.63.63,0,0,0,.7.68.67.67,0,0,0,.53-.25.92.92,0,0,0,.21-.61v-1.56h.53Zm-5.58-2.81h.5v.39h0a.88.88,0,0,1,.37-.34,1.07,1.07,0,0,1,.52-.14,1,1,0,0,1,.79.29,1.18,1.18,0,0,1,.28.85v1.76h-.53v-1.73a.62.62,0,0,0-.69-.69.67.67,0,0,0-.53.26.92.92,0,0,0-.21.61v1.55h-.53ZM65.43,194a1.33,1.33,0,0,1,.92.31,1.11,1.11,0,0,1,.34.86v1.73h-.5v-.39h0a1,1,0,0,1-.88.48,1.13,1.13,0,0,1-.77-.27.87.87,0,0,1-.32-.69.83.83,0,0,1,.33-.69,1.42,1.42,0,0,1,.88-.26,1.61,1.61,0,0,1,.78.17v-.12a.6.6,0,0,0-.22-.47.72.72,0,0,0-.51-.19.83.83,0,0,0-.7.37l-.46-.29A1.27,1.27,0,0,1,65.43,194Zm-.68,2a.46.46,0,0,0,.17.35.68.68,0,0,0,.42.13.86.86,0,0,0,.59-.24.8.8,0,0,0,.26-.58,1.11,1.11,0,0,0-.69-.19,1,1,0,0,0-.54.15A.46.46,0,0,0,64.75,196Zm-2.29,1a1.32,1.32,0,0,1-.81-.25,1.29,1.29,0,0,1-.47-.7l.5-.2a.78.78,0,0,0,.78.65.68.68,0,0,0,.52-.23.85.85,0,0,0,.19-.59v-2.88h.53v2.84a1.39,1.39,0,0,1-.34,1A1.16,1.16,0,0,1,62.46,197Zm-7.28-1.2a.61.61,0,0,0,.06.28.76.76,0,0,0,.17.22.87.87,0,0,0,.25.15,1.07,1.07,0,0,0,.32.05,1,1,0,0,0,.31-.05.87.87,0,0,0,.25-.15.62.62,0,0,0,.17-.22.61.61,0,0,0,.06-.28.62.62,0,0,0-.23-.49.79.79,0,0,0-.56-.2.8.8,0,0,0-.57.2A.64.64,0,0,0,55.18,195.79Zm.14-1.8a.57.57,0,0,0,.18.44.64.64,0,0,0,.48.17.63.63,0,0,0,.47-.17.57.57,0,0,0,.18-.44.56.56,0,0,0-.18-.44.72.72,0,0,0-.47-.16.73.73,0,0,0-.48.16A.56.56,0,0,0,55.32,194Zm2,1.83a1.05,1.05,0,0,1-.39.84,1.52,1.52,0,0,1-1.89,0,1.05,1.05,0,0,1-.39-.84,1,1,0,0,1,.17-.57,1.13,1.13,0,0,1,.48-.4v0a1.09,1.09,0,0,1-.37-.37.8.8,0,0,1-.14-.46,1.08,1.08,0,0,1,.33-.8,1.22,1.22,0,0,1,.87-.31,1.16,1.16,0,0,1,.85.31,1.05,1.05,0,0,1,.34.8.8.8,0,0,1-.14.46,1.16,1.16,0,0,1-.36.37v0a1.16,1.16,0,0,1,.47.4A1,1,0,0,1,57.31,195.82Zm-4.43.73a.37.37,0,0,1-.11.27.39.39,0,0,1-.56,0,.33.33,0,0,1-.11-.27.36.36,0,0,1,.11-.28.41.41,0,0,1,.56,0A.39.39,0,0,1,52.88,196.55Zm0-2.1a.37.37,0,0,1-.11.27.39.39,0,0,1-.56,0,.33.33,0,0,1-.11-.27.34.34,0,0,1,.11-.28.41.41,0,0,1,.56,0A.38.38,0,0,1,52.88,194.45Zm-1.2,1.67a.74.74,0,0,1-.32.62,1.24,1.24,0,0,1-.81.25,1.31,1.31,0,0,1-.74-.21,1.21,1.21,0,0,1-.46-.59l.47-.2a.94.94,0,0,0,.3.4.85.85,0,0,0,.85,0,.31.31,0,0,0,.17-.26c0-.18-.13-.32-.41-.4l-.48-.12c-.55-.13-.82-.4-.82-.79a.7.7,0,0,1,.31-.61,1.29,1.29,0,0,1,.8-.24,1.3,1.3,0,0,1,.68.18.91.91,0,0,1,.42.47l-.47.2a.59.59,0,0,0-.26-.28.92.92,0,0,0-.41-.1.76.76,0,0,0-.37.1.3.3,0,0,0-.16.26c0,.16.15.27.45.34l.43.11C51.41,195.42,51.68,195.7,51.68,196.12Zm-4.25.87a1.22,1.22,0,0,1-.94-.43,1.54,1.54,0,0,1-.39-1.06,1.53,1.53,0,0,1,.39-1.06,1.23,1.23,0,0,1,.94-.44,1.2,1.2,0,0,1,.57.13,1,1,0,0,1,.39.35h0l0-.39v-1.3h.53v4.11h-.5v-.39h0a.89.89,0,0,1-.39.35A1.2,1.2,0,0,1,47.43,197Zm.09-.48a.78.78,0,0,0,.63-.28,1,1,0,0,0,.27-.73,1,1,0,0,0-.27-.73.8.8,0,0,0-.63-.29.84.84,0,0,0-.64.29,1.05,1.05,0,0,0-.26.73,1,1,0,0,0,.26.72A.81.81,0,0,0,47.52,196.51Zm-4.37-2.42h.5v.39h0a1,1,0,0,1,.38-.34,1.06,1.06,0,0,1,.51-.14,1.07,1.07,0,0,1,.8.29,1.18,1.18,0,0,1,.28.85v1.76h-.53v-1.73a.62.62,0,0,0-.69-.69.67.67,0,0,0-.53.26.93.93,0,0,0-.22.61v1.55h-.52Zm-.56-1.3v.51H40.72v1.3H42.4v.5H40.72v1.3h1.87v.5h-2.4v-4.11Zm37.26-3.18h-.53V186.8h.51v.46h0a.72.72,0,0,1,.33-.39.86.86,0,0,1,.49-.16,1.13,1.13,0,0,1,.39.07l-.16.51a1.19,1.19,0,0,0-.31,0,.68.68,0,0,0-.52.23.8.8,0,0,0-.22.57Zm-3.18-1.75h1.61a.72.72,0,0,0-.24-.48.83.83,0,0,0-.58-.19.76.76,0,0,0-.51.18A.78.78,0,0,0,76.67,187.86Zm.84,1.84a1.3,1.3,0,0,1-1-.43,1.48,1.48,0,0,1-.4-1.07,1.57,1.57,0,0,1,.38-1.07,1.34,1.34,0,0,1,1-.43,1.3,1.3,0,0,1,1,.41,1.6,1.6,0,0,1,.37,1.13v.06h-2.2a.85.85,0,0,0,.27.66.89.89,0,0,0,1.42-.25l.47.23a1.4,1.4,0,0,1-.52.56A1.51,1.51,0,0,1,77.51,189.7Zm-3.17-.49a.83.83,0,0,0,.64-.28,1.05,1.05,0,0,0,.26-.73,1.07,1.07,0,0,0-.26-.73.83.83,0,0,0-.64-.28.81.81,0,0,0-.64.28,1.06,1.06,0,0,0-.25.73,1,1,0,0,0,.25.73A.81.81,0,0,0,74.34,189.21Zm.09.49a1.33,1.33,0,0,1-.57-.13,1,1,0,0,1-.39-.36h0v.4h-.51V185.5h.53v1.3l0,.39h0a1,1,0,0,1,.39-.36,1.33,1.33,0,0,1,.57-.13,1.22,1.22,0,0,1,.94.44,1.54,1.54,0,0,1,.39,1.06,1.53,1.53,0,0,1-.39,1.06A1.22,1.22,0,0,1,74.43,189.7Zm-5.85-.09h-.52V186.8h.5v.39h0a.9.9,0,0,1,.37-.35,1.05,1.05,0,0,1,.5-.14,1,1,0,0,1,.55.15.81.81,0,0,1,.34.39,1.09,1.09,0,0,1,1-.54,1,1,0,0,1,.75.3,1.29,1.29,0,0,1,.26.85v1.76h-.53v-1.68a.89.89,0,0,0-.14-.57.59.59,0,0,0-.48-.17.63.63,0,0,0-.51.25.94.94,0,0,0-.21.61v1.56h-.52v-1.68a.88.88,0,0,0-.15-.57.59.59,0,0,0-.48-.17.63.63,0,0,0-.51.25.94.94,0,0,0-.21.61Zm-3.18-1.75H67a.68.68,0,0,0-.24-.48.81.81,0,0,0-.58-.19.79.79,0,0,0-.51.18A.83.83,0,0,0,65.4,187.86Zm.84,1.84a1.33,1.33,0,0,1-1-.43,1.48,1.48,0,0,1-.4-1.07,1.53,1.53,0,0,1,.39-1.07,1.31,1.31,0,0,1,1-.43,1.29,1.29,0,0,1,1,.41,1.6,1.6,0,0,1,.37,1.13v.06H65.36a.9.9,0,0,0,1.7.41l.47.23a1.43,1.43,0,0,1-.53.56A1.49,1.49,0,0,1,66.24,189.7Zm-2.94,0a1.37,1.37,0,0,1-1-.43,1.5,1.5,0,0,1-.41-1.07,1.49,1.49,0,0,1,.41-1.07,1.37,1.37,0,0,1,1-.43,1.27,1.27,0,0,1,.75.22,1.34,1.34,0,0,1,.48.59l-.48.2a.84.84,0,0,0-1.41-.23,1.13,1.13,0,0,0,0,1.44.79.79,0,0,0,.62.29.83.83,0,0,0,.82-.52l.47.2a1.22,1.22,0,0,1-.48.59A1.34,1.34,0,0,1,63.3,189.7Zm-4-1.84h1.61a.64.64,0,0,0-.24-.48.89.89,0,0,0-1.09,0A.83.83,0,0,0,59.33,187.86Zm.84,1.84a1.33,1.33,0,0,1-1-.43,1.48,1.48,0,0,1-.4-1.07,1.53,1.53,0,0,1,.39-1.07,1.31,1.31,0,0,1,1-.43,1.29,1.29,0,0,1,1,.41,1.6,1.6,0,0,1,.37,1.13v.06H59.29a.93.93,0,0,0,.27.66.89.89,0,0,0,.64.25.85.85,0,0,0,.78-.5l.48.23a1.5,1.5,0,0,1-.53.56A1.49,1.49,0,0,1,60.17,189.7ZM55.65,186v3.1h.73a1.51,1.51,0,0,0,1.13-.41,1.78,1.78,0,0,0,0-2.27,1.52,1.52,0,0,0-1.13-.42Zm-.53,3.61V185.5h1.26a2,2,0,0,1,1.51.57,2,2,0,0,1,.57,1.48,2,2,0,0,1-.57,1.49,2,2,0,0,1-1.51.57Zm-6.81-1.32h1.27v-1.83h0Zm1.8.49v.83h-.53v-.83H47.71v-.4l1.82-2.7h.58v2.61h.5v.49Zm-2.88.32v.51h-2.5v-.53l1-1a9.77,9.77,0,0,0,.7-.78.91.91,0,0,0,.2-.55.59.59,0,0,0-.2-.44.77.77,0,0,0-.52-.18.68.68,0,0,0-.46.16.6.6,0,0,0-.25.39l-.49-.2a1.25,1.25,0,0,1,.44-.61,1.23,1.23,0,0,1,.77-.25,1.26,1.26,0,0,1,.89.33,1,1,0,0,1,.36.8,1.87,1.87,0,0,1-.63,1.23l-1.15,1.15Zm-4.27.15a.37.37,0,0,1-.11.28.39.39,0,0,1-.28.11.4.4,0,0,1-.27-.11.39.39,0,0,1,0-.56.4.4,0,0,1,.27-.11.39.39,0,0,1,.28.11A.37.37,0,0,1,43,189.25Zm0-2.1a.37.37,0,0,1-.11.28.39.39,0,0,1-.28.11.4.4,0,0,1-.27-.11.39.39,0,0,1,0-.56.4.4,0,0,1,.27-.11.39.39,0,0,1,.28.11A.37.37,0,0,1,43,187.15Zm-1.19,1.67a.76.76,0,0,1-.32.63,1.35,1.35,0,0,1-.81.25,1.24,1.24,0,0,1-.74-.22,1.17,1.17,0,0,1-.46-.59l.46-.19a1,1,0,0,0,.31.39.74.74,0,0,0,.43.14.77.77,0,0,0,.42-.11.31.31,0,0,0,.17-.26c0-.18-.14-.31-.41-.39l-.48-.13c-.55-.14-.82-.4-.82-.79a.74.74,0,0,1,.31-.62,1.33,1.33,0,0,1,.8-.23,1.27,1.27,0,0,1,.67.18,1,1,0,0,1,.43.48l-.48.19a.54.54,0,0,0-.26-.28.77.77,0,0,0-.4-.1.67.67,0,0,0-.37.11.29.29,0,0,0-.16.25c0,.16.15.28.45.35l.42.1Q41.77,188.19,41.77,188.82Zm-6.42-2h.51v.46h0a.93.93,0,0,1,1-.55l.11,0v.55l-.24,0a.84.84,0,0,0-.6.22.75.75,0,0,0-.24.58v1.55h-.53Zm3.29,2.85a.79.79,0,0,1-.56-.21.78.78,0,0,1-.24-.59v-1.57h-.49v-.48h.49v-.87h.53v.87h.69v.48h-.69v1.4a.54.54,0,0,0,.11.38.33.33,0,0,0,.25.1h.12l.11,0,.17.47A1.45,1.45,0,0,1,38.64,189.65Zm-5.15-3a1.33,1.33,0,0,1,.93.32,1.11,1.11,0,0,1,.34.86v1.73h-.51v-.4h0a1,1,0,0,1-.87.49,1.12,1.12,0,0,1-.78-.28.86.86,0,0,1-.31-.69.83.83,0,0,1,.33-.69,1.4,1.4,0,0,1,.88-.26,1.6,1.6,0,0,1,.77.17v-.12a.57.57,0,0,0-.22-.46.73.73,0,0,0-.51-.2.84.84,0,0,0-.7.37l-.46-.28A1.28,1.28,0,0,1,33.49,186.7Zm-.68,2.05a.42.42,0,0,0,.18.34.63.63,0,0,0,.4.14A.82.82,0,0,0,34,189a.8.8,0,0,0,.26-.58,1.07,1.07,0,0,0-.69-.2.9.9,0,0,0-.53.16A.46.46,0,0,0,32.81,188.75Zm-1.25.9a.77.77,0,0,1-.8-.8v-1.57h-.49v-.48h.49v-.87h.53v.87H32v.48h-.69v1.4a.54.54,0,0,0,.11.38.35.35,0,0,0,.25.1h.12l.11,0,.17.47A1.45,1.45,0,0,1,31.56,189.65Zm-1.51-1.14a1.08,1.08,0,0,1-.39.87,1.56,1.56,0,0,1-1,.32,1.44,1.44,0,0,1-.9-.3,1.54,1.54,0,0,1-.54-.81l.5-.21a1.66,1.66,0,0,0,.15.33,1.09,1.09,0,0,0,.21.26,1.28,1.28,0,0,0,.28.16.78.78,0,0,0,.31.06.92.92,0,0,0,.59-.18.6.6,0,0,0,.23-.5.58.58,0,0,0-.19-.44,1.78,1.78,0,0,0-.66-.35l-.62-.23a1.08,1.08,0,0,1-.65-1,1,1,0,0,1,.36-.77,1.31,1.31,0,0,1,.9-.32,1.38,1.38,0,0,1,.81.24,1.13,1.13,0,0,1,.47.59l-.5.2a.73.73,0,0,0-.27-.38.82.82,0,0,0-.5-.15.81.81,0,0,0-.52.17.51.51,0,0,0-.21.42.49.49,0,0,0,.16.37,3,3,0,0,0,.8.37,1.9,1.9,0,0,1,.89.52A1.08,1.08,0,0,1,30.05,188.51Z"/><path class="cls-9" d="M80.89,176.09v4.39h-.83v-4.39Zm.17-1.51a.57.57,0,0,1-.17.41.54.54,0,0,1-.42.17.54.54,0,0,1-.41-.17.58.58,0,0,1,0-.82.54.54,0,0,1,.41-.17.54.54,0,0,1,.42.17A.57.57,0,0,1,81.06,174.58Zm-4,1.37a2,2,0,0,1,1.44.49,1.73,1.73,0,0,1,.53,1.34v2.7h-.78v-.61h0a1.57,1.57,0,0,1-1.36.75,1.78,1.78,0,0,1-1.22-.43,1.36,1.36,0,0,1-.48-1.07,1.32,1.32,0,0,1,.51-1.09,2.24,2.24,0,0,1,1.38-.4,2.43,2.43,0,0,1,1.21.27v-.19a1,1,0,0,0-.35-.73,1.15,1.15,0,0,0-.79-.3,1.28,1.28,0,0,0-1.1.59l-.72-.46A2,2,0,0,1,77.09,176ZM76,179.14a.65.65,0,0,0,.27.53,1,1,0,0,0,.64.22,1.32,1.32,0,0,0,.93-.39,1.19,1.19,0,0,0,.41-.9,1.67,1.67,0,0,0-1.08-.3,1.41,1.41,0,0,0-.84.23A.75.75,0,0,0,76,179.14Zm-3.57.73a1.28,1.28,0,0,0,1-.45,1.6,1.6,0,0,0,.4-1.14,1.63,1.63,0,0,0-.4-1.13,1.28,1.28,0,0,0-1-.45,1.31,1.31,0,0,0-1,.45,1.67,1.67,0,0,0-.39,1.13,1.69,1.69,0,0,0,.39,1.15A1.33,1.33,0,0,0,72.46,179.87Zm.13.75a1.84,1.84,0,0,1-.88-.21,1.46,1.46,0,0,1-.61-.54h0v.61h-.78v-6.41h.82v2l0,.61h0a1.53,1.53,0,0,1,.61-.54,1.84,1.84,0,0,1,.88-.21,1.9,1.9,0,0,1,1.47.68,2.4,2.4,0,0,1,.62,1.65,2.37,2.37,0,0,1-.62,1.66A1.9,1.9,0,0,1,72.59,180.62Zm-9.12-.14h-.82v-4.39h.79v.61h0a1.6,1.6,0,0,1,.58-.54,1.63,1.63,0,0,1,.78-.21,1.47,1.47,0,0,1,.84.23,1.23,1.23,0,0,1,.54.61,1.72,1.72,0,0,1,1.51-.84,1.54,1.54,0,0,1,1.18.46,2,2,0,0,1,.41,1.33v2.74h-.82v-2.61a1.38,1.38,0,0,0-.23-.89.9.9,0,0,0-.75-.28,1,1,0,0,0-.8.41,1.47,1.47,0,0,0-.32.94v2.43h-.82v-2.61a1.38,1.38,0,0,0-.23-.89.9.9,0,0,0-.75-.28,1,1,0,0,0-.8.41,1.47,1.47,0,0,0-.32.94Zm-1.82,0h-.79v-.61h0a1.42,1.42,0,0,1-.57.54,1.69,1.69,0,0,1-.81.21,1.61,1.61,0,0,1-1.24-.46,1.82,1.82,0,0,1-.44-1.31v-2.76h.83v2.71a1,1,0,0,0,1.08,1.07,1,1,0,0,0,.82-.4,1.43,1.43,0,0,0,.33-.95v-2.43h.83Zm-10.22,0h-.82v-6.41h.82l2.23,3.9h0l2.23-3.9h.82v6.41h-.82v-3.8l0-1.08h0l-2,3.52h-.48l-2-3.52h0l0,1.08Z"/><path class="cls-9" d="M92.55,220.5v4.39h-.82V220.5Zm.17-1.51a.57.57,0,0,1-.17.41.58.58,0,0,1-1-.41.54.54,0,0,1,.17-.41.58.58,0,0,1,.82,0A.58.58,0,0,1,92.72,219Zm-2.07-.51v6.41h-.82v-6.41Zm-3.75,5.8a1.29,1.29,0,0,0,1-.45,1.64,1.64,0,0,0,.4-1.13,1.68,1.68,0,0,0-.4-1.14,1.29,1.29,0,0,0-1-.45,1.3,1.3,0,0,0-1,.45,1.86,1.86,0,0,0,0,2.28A1.33,1.33,0,0,0,86.9,224.28ZM87,225a2,2,0,0,1-.88-.2,1.58,1.58,0,0,1-.62-.55h0v.61h-.79v-6.41h.82v2l0,.61h0a1.56,1.56,0,0,1,.62-.54,1.84,1.84,0,0,1,.88-.21,1.9,1.9,0,0,1,1.47.68,2.4,2.4,0,0,1,.61,1.66,2.36,2.36,0,0,1-.61,1.65A1.9,1.9,0,0,1,87,225Zm-3.32-.14h-.79v-.61h0a1.45,1.45,0,0,1-.58.54,1.69,1.69,0,0,1-.81.21,1.61,1.61,0,0,1-1.24-.46,1.82,1.82,0,0,1-.44-1.31V220.5h.83v2.71a1,1,0,0,0,1.08,1.07,1,1,0,0,0,.82-.4,1.39,1.39,0,0,0,.34-.95V220.5h.82Zm-8.93,0H74v-6.41h.82v2.75H78v-2.75h.82v6.41H78V222h-3.2Z"/><path class="cls-9" d="M114.08,243h-.78v-.61h0a1.39,1.39,0,0,1-.58.54,1.69,1.69,0,0,1-.8.22,1.67,1.67,0,0,1-1.25-.46,1.86,1.86,0,0,1-.43-1.32v-2.75H111v2.7a1,1,0,0,0,1.08,1.07,1,1,0,0,0,.82-.4,1.43,1.43,0,0,0,.33-.95v-2.42h.82Zm-6.27,0H107v-4.38h.79v.71h0a1.22,1.22,0,0,1,.52-.59,1.46,1.46,0,0,1,.76-.25,1.58,1.58,0,0,1,.61.11l-.25.8a1.15,1.15,0,0,0-.48-.07,1.06,1.06,0,0,0-.81.38,1.26,1.26,0,0,0-.35.88ZM106,243h-.79v-.61h0a1.42,1.42,0,0,1-.57.54,1.7,1.7,0,0,1-.81.22,1.64,1.64,0,0,1-1.24-.46,1.86,1.86,0,0,1-.44-1.32v-2.75h.83v2.7A1,1,0,0,0,104,242.4a1,1,0,0,0,.82-.4,1.43,1.43,0,0,0,.33-.95v-2.42H106Zm-4.85-6.4V243h-.83v-6.4Zm-3.73,1.87a2.06,2.06,0,0,1,1.44.49,1.71,1.71,0,0,1,.53,1.34V243h-.79v-.61h0a1.56,1.56,0,0,1-1.36.76,1.79,1.79,0,0,1-1.21-.43,1.38,1.38,0,0,1-.49-1.08,1.31,1.31,0,0,1,.51-1.08,2.18,2.18,0,0,1,1.38-.4,2.48,2.48,0,0,1,1.2.26v-.18a1,1,0,0,0-.33-.73,1.19,1.19,0,0,0-.8-.3,1.24,1.24,0,0,0-1.09.58l-.73-.46A2,2,0,0,1,97.41,238.48Zm-1.06,3.19a.67.67,0,0,0,.27.54,1,1,0,0,0,.64.21,1.32,1.32,0,0,0,.93-.39,1.18,1.18,0,0,0,.4-.9,1.68,1.68,0,0,0-1.07-.3,1.43,1.43,0,0,0-.84.24A.72.72,0,0,0,96.35,241.67Zm-3.77,3.42a2.61,2.61,0,0,1-.69-.09,2.58,2.58,0,0,1-.58-.27,2,2,0,0,1-.46-.4,1.75,1.75,0,0,1-.28-.52l.77-.32a1.31,1.31,0,0,0,.47.62,1.34,1.34,0,0,0,.77.23,1.36,1.36,0,0,0,1-.41,1.56,1.56,0,0,0,.38-1.11v-.42h0a1.6,1.6,0,0,1-.63.55,1.86,1.86,0,0,1-.87.21,1.93,1.93,0,0,1-1.47-.68,2.56,2.56,0,0,1,0-3.32,1.93,1.93,0,0,1,1.47-.68,1.86,1.86,0,0,1,.87.21,1.65,1.65,0,0,1,.63.54h0v-.6h.78v4.19a2.24,2.24,0,0,1-.6,1.66A2.15,2.15,0,0,1,92.58,245.09Zm0-2.69a1.24,1.24,0,0,0,1-.44,1.61,1.61,0,0,0,.41-1.14,1.64,1.64,0,0,0-.41-1.14,1.28,1.28,0,0,0-1-.45,1.34,1.34,0,0,0-1,.45,1.82,1.82,0,0,0,0,2.28A1.33,1.33,0,0,0,92.61,242.4Zm-6.78-3.77h.79v.6h0a1.37,1.37,0,0,1,.58-.53,1.53,1.53,0,0,1,.8-.22,1.61,1.61,0,0,1,1.24.47,1.82,1.82,0,0,1,.44,1.31V243H88.9v-2.7a1,1,0,0,0-1.09-1.08,1.05,1.05,0,0,0-.82.4,1.47,1.47,0,0,0-.33,1V243h-.83Zm-4.14,1.66H84.2a1.07,1.07,0,0,0-.37-.76,1.34,1.34,0,0,0-.9-.3,1.23,1.23,0,0,0-.8.29A1.38,1.38,0,0,0,81.69,240.29ZM83,243.16a2.12,2.12,0,0,1-1.6-.67,2.57,2.57,0,0,1,0-3.34,2,2,0,0,1,1.55-.67,2.06,2.06,0,0,1,1.56.63,2.55,2.55,0,0,1,.57,1.77V241H81.63a1.4,1.4,0,0,0,.43,1,1.4,1.4,0,0,0,2.22-.39L85,242a2.22,2.22,0,0,1-.82.87A2.24,2.24,0,0,1,83,243.16Zm-6.32-3v2.11h1.65a1.06,1.06,0,0,0,.77-.32,1,1,0,0,0,.3-.74,1,1,0,0,0-.32-.74,1.06,1.06,0,0,0-.78-.31Zm0-2.73v2h1.49a1,1,0,0,0,.74-.29,1,1,0,0,0,.29-.69,1,1,0,0,0-.28-.68.94.94,0,0,0-.71-.3ZM75.86,243v-6.4h2.32a1.84,1.84,0,0,1,1.31.5,1.6,1.6,0,0,1,.55,1.24,1.34,1.34,0,0,1-.87,1.33v0a1.49,1.49,0,0,1,.78.56,1.46,1.46,0,0,1,.3.91,1.68,1.68,0,0,1-.57,1.3,1.92,1.92,0,0,1-1.37.52Z"/><path class="cls-9" d="M170.11,264.39v4.39h-.82v-4.39Zm.17-1.51a.57.57,0,0,1-.17.41.54.54,0,0,1-.41.17.58.58,0,0,1-.41-1,.57.57,0,0,1,.41-.17.58.58,0,0,1,.41.17A.57.57,0,0,1,170.28,262.88Zm-4,1.37a2.05,2.05,0,0,1,1.45.49,1.72,1.72,0,0,1,.52,1.33v2.71h-.79v-.61h0a1.57,1.57,0,0,1-1.36.75,1.74,1.74,0,0,1-1.21-.43,1.36,1.36,0,0,1-.49-1.07,1.3,1.3,0,0,1,.52-1.09,2.21,2.21,0,0,1,1.37-.4,2.39,2.39,0,0,1,1.2.27V266a.94.94,0,0,0-.34-.73,1.15,1.15,0,0,0-.79-.3,1.28,1.28,0,0,0-1.09.58l-.73-.45A2,2,0,0,1,166.31,264.25Zm-1.06,3.18a.65.65,0,0,0,.27.54,1,1,0,0,0,.64.22,1.3,1.3,0,0,0,.93-.39,1.19,1.19,0,0,0,.4-.9,1.68,1.68,0,0,0-1.07-.31,1.44,1.44,0,0,0-.84.25A.71.71,0,0,0,165.25,267.43Zm-2.85,1.35h-.82v-4.39h.79v.72h0a1.23,1.23,0,0,1,.52-.6,1.44,1.44,0,0,1,.76-.24,1.56,1.56,0,0,1,.61.1l-.25.8a1.4,1.4,0,0,0-.48-.06,1.06,1.06,0,0,0-.81.37,1.27,1.27,0,0,0-.35.88Zm-1.82,0h-.79v-.61h0a1.6,1.6,0,0,1-.58.54,1.69,1.69,0,0,1-.81.21,1.61,1.61,0,0,1-1.24-.46,1.85,1.85,0,0,1-.44-1.31v-2.76h.83v2.7a1,1,0,0,0,1.08,1.08,1,1,0,0,0,.82-.4,1.4,1.4,0,0,0,.34-.95v-2.43h.82Zm-7.17.14a1.91,1.91,0,0,1-1.48-.68,2.55,2.55,0,0,1,0-3.31,2,2,0,0,1,1.48-.68,2,2,0,0,1,.88.2,1.49,1.49,0,0,1,.61.55h0l0-.61v-2h.83v6.41h-.79v-.61h0a1.47,1.47,0,0,1-.61.54A1.87,1.87,0,0,1,153.41,268.92Zm.13-.75a1.28,1.28,0,0,0,1-.44,1.82,1.82,0,0,0,0-2.28,1.33,1.33,0,0,0-2,0,1.62,1.62,0,0,0-.4,1.14,1.59,1.59,0,0,0,.4,1.13A1.28,1.28,0,0,0,153.54,268.17Zm-4.82-3.92a2,2,0,0,1,1.44.49,1.72,1.72,0,0,1,.53,1.33v2.71h-.79v-.61h0a1.58,1.58,0,0,1-1.36.75,1.77,1.77,0,0,1-1.22-.43,1.38,1.38,0,0,1-.48-1.07,1.32,1.32,0,0,1,.51-1.09,2.24,2.24,0,0,1,1.38-.4,2.39,2.39,0,0,1,1.2.27V266a.94.94,0,0,0-.34-.73,1.15,1.15,0,0,0-.79-.3,1.29,1.29,0,0,0-1.1.58l-.72-.45A2,2,0,0,1,148.72,264.25Zm-1.06,3.18a.65.65,0,0,0,.27.54,1,1,0,0,0,.64.22,1.32,1.32,0,0,0,.93-.39,1.19,1.19,0,0,0,.4-.9,1.68,1.68,0,0,0-1.07-.31,1.42,1.42,0,0,0-.84.25A.71.71,0,0,0,147.66,267.43Zm-6.93,1.35h-.82v-6.41h.82l2.23,3.9h0l2.23-3.9H146v6.41h-.82V265l0-1.07h0l-2,3.52h-.48l-2-3.52h0l0,1.07Z"/><path class="cls-9" d="M182.55,234.22v4.39h-.83v-4.39Zm.17-1.51a.57.57,0,0,1-.17.41.55.55,0,0,1-.42.17.54.54,0,0,1-.41-.17.61.61,0,0,1,0-.82.58.58,0,0,1,.41-.17.59.59,0,0,1,.42.17A.57.57,0,0,1,182.72,232.71Zm-4,1.37a2,2,0,0,1,1.43.49,1.73,1.73,0,0,1,.53,1.34v2.7h-.79V238h0a1.57,1.57,0,0,1-1.36.75,1.78,1.78,0,0,1-1.22-.43,1.38,1.38,0,0,1-.48-1.07,1.33,1.33,0,0,1,.51-1.09,2.24,2.24,0,0,1,1.38-.4,2.37,2.37,0,0,1,1.2.27v-.19a.94.94,0,0,0-.34-.73,1.14,1.14,0,0,0-.79-.29,1.28,1.28,0,0,0-1.1.57l-.72-.45A2,2,0,0,1,178.76,234.08Zm-1.07,3.19a.65.65,0,0,0,.27.53,1,1,0,0,0,.64.22,1.3,1.3,0,0,0,.93-.39,1.21,1.21,0,0,0,.4-.9,1.68,1.68,0,0,0-1.07-.3,1.43,1.43,0,0,0-.84.24A.72.72,0,0,0,177.69,237.27Zm-5.41-3.05h.79v.61h0a1.4,1.4,0,0,1,.57-.53,1.78,1.78,0,0,1,2,.24,1.84,1.84,0,0,1,.44,1.31v2.76h-.83v-2.7a1,1,0,0,0-1.08-1.08,1,1,0,0,0-.82.4,1.45,1.45,0,0,0-.33,1v2.43h-.83Zm-4.85,0h.79v.61h0a1.4,1.4,0,0,1,.57-.53,1.63,1.63,0,0,1,.82-.22,1.6,1.6,0,0,1,1.23.46,1.84,1.84,0,0,1,.44,1.31v2.76h-.83v-2.7a1,1,0,0,0-1.08-1.08,1,1,0,0,0-.82.4,1.45,1.45,0,0,0-.33,1v2.43h-.83Zm-4.14,1.67h2.52a1.12,1.12,0,0,0-.38-.76,1.29,1.29,0,0,0-.9-.3,1.21,1.21,0,0,0-.8.29A1.38,1.38,0,0,0,163.29,235.89Zm1.32,2.86a2.11,2.11,0,0,1-1.6-.66,2.32,2.32,0,0,1-.62-1.67,2.39,2.39,0,0,1,.6-1.67,2,2,0,0,1,1.56-.67,2,2,0,0,1,1.55.63,2.5,2.5,0,0,1,.58,1.77v.09h-3.44a1.42,1.42,0,0,0,.43,1,1.39,1.39,0,0,0,2.22-.4l.73.36a2.19,2.19,0,0,1-2,1.18Zm-6.82-6.55h.82v2l0,.61h0a1.5,1.5,0,0,1,.58-.53,1.59,1.59,0,0,1,.81-.22,1.62,1.62,0,0,1,1.24.46,1.88,1.88,0,0,1,.43,1.31v2.76h-.82V236c0-.79-.35-1.19-1-1.19a1.07,1.07,0,0,0-.85.42,1.47,1.47,0,0,0-.34,1v2.39h-.82Zm-3.28,6.55a3.26,3.26,0,0,1-3.33-3.34,3.26,3.26,0,0,1,.95-2.39,3.21,3.21,0,0,1,2.38-1,3,3,0,0,1,2.36,1.05l-.6.57a2.16,2.16,0,0,0-1.76-.83,2.44,2.44,0,0,0-1.78.71,2.75,2.75,0,0,0,0,3.69,2.4,2.4,0,0,0,1.78.71,2.49,2.49,0,0,0,1.94-.94l.6.59a3,3,0,0,1-1.12.84A3.38,3.38,0,0,1,154.51,238.75Z"/><path class="cls-9" d="M232.41,203.19h-.82V198.8h.79v.61h0a1.6,1.6,0,0,1,.58-.54,1.63,1.63,0,0,1,.77-.21,1.58,1.58,0,0,1,.85.22,1.3,1.3,0,0,1,.54.62,1.71,1.71,0,0,1,1.51-.84,1.5,1.5,0,0,1,1.17.46,1.91,1.91,0,0,1,.41,1.33v2.74h-.82v-2.62a1.42,1.42,0,0,0-.22-.89.93.93,0,0,0-.75-.27,1,1,0,0,0-.8.4,1.46,1.46,0,0,0-.32.95v2.43h-.82v-2.62a1.42,1.42,0,0,0-.23-.89.93.93,0,0,0-.75-.27,1,1,0,0,0-.8.4,1.51,1.51,0,0,0-.32.95Zm-3.72-4.53a2,2,0,0,1,1.44.49,1.72,1.72,0,0,1,.53,1.33v2.71h-.79v-.61h0a1.57,1.57,0,0,1-1.36.75,1.76,1.76,0,0,1-1.21-.43,1.36,1.36,0,0,1-.49-1.07,1.29,1.29,0,0,1,.52-1.08,2.15,2.15,0,0,1,1.37-.41,2.43,2.43,0,0,1,1.21.27v-.19a.94.94,0,0,0-.34-.73,1.17,1.17,0,0,0-.8-.3,1.26,1.26,0,0,0-1.09.59l-.72-.46A2,2,0,0,1,228.69,198.66Zm-1.07,3.18a.66.66,0,0,0,.28.54,1,1,0,0,0,.64.22,1.3,1.3,0,0,0,.92-.39,1.16,1.16,0,0,0,.41-.9,1.69,1.69,0,0,0-1.08-.31,1.39,1.39,0,0,0-.83.25A.73.73,0,0,0,227.62,201.84Zm-5.4-3H223v.61h0a1.6,1.6,0,0,1,.58-.54,1.69,1.69,0,0,1,.81-.21,1.61,1.61,0,0,1,1.24.46,1.83,1.83,0,0,1,.43,1.31v2.76h-.82v-2.71a1,1,0,0,0-1.08-1.07,1,1,0,0,0-.83.4,1.43,1.43,0,0,0-.33.95v2.43h-.82Zm-1.48,4.46a1.26,1.26,0,0,1-.89-.33,1.23,1.23,0,0,1-.36-.92v-2.46h-.77v-.75h.77v-1.34h.82v1.34h1.08v.75h-1.08v2.19a.8.8,0,0,0,.17.59.53.53,0,0,0,.39.16l.19,0,.18-.06.25.73A2.11,2.11,0,0,1,220.74,203.26Zm-4.54-4.6a2,2,0,0,1,1.44.49,1.72,1.72,0,0,1,.53,1.33v2.71h-.79v-.61h0a1.57,1.57,0,0,1-1.36.75,1.74,1.74,0,0,1-1.21-.43,1.36,1.36,0,0,1-.49-1.07,1.28,1.28,0,0,1,.51-1.08,2.18,2.18,0,0,1,1.38-.41,2.43,2.43,0,0,1,1.21.27v-.19a1,1,0,0,0-.34-.73,1.19,1.19,0,0,0-.8-.3,1.26,1.26,0,0,0-1.09.59l-.73-.46A2,2,0,0,1,216.2,198.66Zm-1.07,3.18a.65.65,0,0,0,.27.54,1,1,0,0,0,.64.22,1.3,1.3,0,0,0,.93-.39,1.19,1.19,0,0,0,.41-.9,1.73,1.73,0,0,0-1.08-.31,1.39,1.39,0,0,0-.83.25A.7.7,0,0,0,215.13,201.84Zm-3.43,1.49a1.89,1.89,0,0,1-.89-.21,1.53,1.53,0,0,1-.61-.54h0l0,.61v1.93h-.82V198.8h.79v.61h0a1.46,1.46,0,0,1,.61-.54,1.94,1.94,0,0,1,2.35.47,2.41,2.41,0,0,1,.62,1.66,2.38,2.38,0,0,1-.62,1.65A1.86,1.86,0,0,1,211.7,203.33Zm-.14-.75a1.3,1.3,0,0,0,1-.45A1.64,1.64,0,0,0,213,201a1.67,1.67,0,0,0-.4-1.14,1.3,1.3,0,0,0-1-.45,1.27,1.27,0,0,0-1,.45,1.61,1.61,0,0,0-.39,1.14,1.63,1.63,0,0,0,.39,1.14A1.3,1.3,0,0,0,211.56,202.58Zm-5.05-3.92a2,2,0,0,1,1.44.49,1.69,1.69,0,0,1,.53,1.33v2.71h-.78v-.61h0a1.57,1.57,0,0,1-1.36.75,1.74,1.74,0,0,1-1.21-.43,1.36,1.36,0,0,1-.49-1.07,1.27,1.27,0,0,1,.52-1.08,2.15,2.15,0,0,1,1.37-.41,2.43,2.43,0,0,1,1.21.27v-.19a1,1,0,0,0-.34-.73,1.17,1.17,0,0,0-.8-.3,1.26,1.26,0,0,0-1.09.59l-.73-.46A2,2,0,0,1,206.51,198.66Zm-1.06,3.18a.65.65,0,0,0,.27.54,1,1,0,0,0,.64.22,1.3,1.3,0,0,0,.93-.39,1.19,1.19,0,0,0,.41-.9,1.73,1.73,0,0,0-1.08-.31,1.39,1.39,0,0,0-.83.25A.7.7,0,0,0,205.45,201.84ZM200,196.78h.83v2l0,.61h0a1.49,1.49,0,0,1,.57-.54,1.7,1.7,0,0,1,.82-.21,1.6,1.6,0,0,1,1.23.46,1.84,1.84,0,0,1,.44,1.31v2.76h-.83v-2.6c0-.79-.34-1.18-1-1.18a1.06,1.06,0,0,0-.85.42,1.47,1.47,0,0,0-.34,1v2.39H200Zm-.46,6.41h-1l-1.37-2.07-.68.66v1.41h-.82v-6.41h.82v3.95l1.9-1.93h1.06v0l-1.71,1.7,1.79,2.61Zm-6.76-4.53a2,2,0,0,1,1.44.49,1.69,1.69,0,0,1,.53,1.33v2.71H194v-.61h0a1.58,1.58,0,0,1-1.36.75,1.74,1.74,0,0,1-1.21-.43,1.36,1.36,0,0,1-.49-1.07,1.28,1.28,0,0,1,.51-1.08,2.17,2.17,0,0,1,1.37-.41,2.45,2.45,0,0,1,1.22.27v-.19a1,1,0,0,0-.34-.73,1.19,1.19,0,0,0-.8-.3,1.28,1.28,0,0,0-1.1.59l-.72-.46A2,2,0,0,1,192.82,198.66Zm-1.06,3.18a.65.65,0,0,0,.27.54,1,1,0,0,0,.64.22,1.28,1.28,0,0,0,.92-.39,1.17,1.17,0,0,0,.42-.9,1.73,1.73,0,0,0-1.08-.31,1.42,1.42,0,0,0-.84.25A.71.71,0,0,0,191.76,201.84Zm-5.41-5.06h.83v2l0,.61h0a1.45,1.45,0,0,1,.58-.54,1.79,1.79,0,0,1,2,.25,1.84,1.84,0,0,1,.44,1.31v2.76h-.82v-2.6c0-.79-.36-1.18-1-1.18a1.06,1.06,0,0,0-.85.42,1.47,1.47,0,0,0-.34,1v2.39h-.83Zm-.71,5.19a1.2,1.2,0,0,1-.5,1,2,2,0,0,1-1.26.39,2.07,2.07,0,0,1-1.17-.34,2,2,0,0,1-.72-.91l.74-.31a1.38,1.38,0,0,0,.47.61,1.24,1.24,0,0,0,1.33.05.49.49,0,0,0,.27-.41c0-.28-.22-.48-.65-.61l-.75-.19c-.85-.22-1.28-.63-1.28-1.24a1.15,1.15,0,0,1,.49-1,2,2,0,0,1,1.25-.36,2,2,0,0,1,1,.28,1.46,1.46,0,0,1,.65.74l-.73.3a.89.89,0,0,0-.41-.43,1.31,1.31,0,0,0-.63-.16,1.11,1.11,0,0,0-.57.16.48.48,0,0,0-.26.4c0,.25.24.43.71.53l.66.18C185.2,200.87,185.64,201.31,185.64,202Zm-4.43-3.17v4.39h-.83V198.8Zm.17-1.51a.57.57,0,0,1-.17.41.55.55,0,0,1-.42.17.54.54,0,0,1-.41-.17.61.61,0,0,1,0-.82.58.58,0,0,1,.41-.17.59.59,0,0,1,.42.17A.57.57,0,0,1,181.38,197.29Zm-3.82,5.9h-.86l-2.26-6.41h.92l1.75,5.2h0l1.82-5.2h.91Z"/><path class="cls-9" d="M240.26,181.48h-.83V177.1h.79v.72h0a1.16,1.16,0,0,1,.51-.6,1.47,1.47,0,0,1,.77-.24,1.59,1.59,0,0,1,.61.1l-.25.8a1.48,1.48,0,0,0-.48-.06,1.07,1.07,0,0,0-.82.37,1.25,1.25,0,0,0-.34.88Zm-1.83,0h-.78v-.61h0a1.39,1.39,0,0,1-.58.54,1.76,1.76,0,0,1-2-.24,1.85,1.85,0,0,1-.44-1.31V177.1h.82v2.7a1,1,0,0,0,1.08,1.07,1,1,0,0,0,.83-.39,1.46,1.46,0,0,0,.33-.95V177.1h.82Zm-6.64.15a1.87,1.87,0,0,1-.88-.21,1.55,1.55,0,0,1-.61-.55h0l0,.61v1.94h-.82V177.1h.78v.61h0a1.55,1.55,0,0,1,.61-.55,2,2,0,0,1,.88-.2,1.87,1.87,0,0,1,1.47.68,2.52,2.52,0,0,1,0,3.31A1.9,1.9,0,0,1,231.79,181.63Zm-.13-.76a1.27,1.27,0,0,0,1-.44,1.78,1.78,0,0,0,0-2.27,1.33,1.33,0,0,0-2,0,1.64,1.64,0,0,0-.4,1.13,1.69,1.69,0,0,0,.4,1.15A1.3,1.3,0,0,0,231.66,180.87Zm-8.95.61h-.82V177.1h.79v.61h0a1.6,1.6,0,0,1,.58-.54,1.63,1.63,0,0,1,.77-.21,1.58,1.58,0,0,1,.85.22,1.26,1.26,0,0,1,.54.62A1.71,1.71,0,0,1,227,177a1.47,1.47,0,0,1,1.17.46,1.93,1.93,0,0,1,.41,1.33v2.73h-.82v-2.61a1.4,1.4,0,0,0-.22-.89.93.93,0,0,0-.75-.27,1,1,0,0,0-.8.4,1.51,1.51,0,0,0-.32.95v2.42h-.82v-2.61a1.4,1.4,0,0,0-.23-.89.93.93,0,0,0-.75-.27,1,1,0,0,0-.8.4,1.51,1.51,0,0,0-.32.95ZM219,177a2,2,0,0,1,1.44.49,1.71,1.71,0,0,1,.53,1.33v2.7h-.79v-.61h0a1.56,1.56,0,0,1-1.36.76,1.81,1.81,0,0,1-1.21-.43,1.41,1.41,0,0,1-.49-1.08,1.29,1.29,0,0,1,.52-1.08,2.15,2.15,0,0,1,1.37-.4,2.43,2.43,0,0,1,1.21.27v-.19a.92.92,0,0,0-.34-.73,1.17,1.17,0,0,0-.8-.3,1.28,1.28,0,0,0-1.09.58l-.72-.45A2,2,0,0,1,219,177Zm-1.07,3.18a.65.65,0,0,0,.28.54,1,1,0,0,0,.64.21,1.29,1.29,0,0,0,.92-.38,1.22,1.22,0,0,0,.41-.9,1.65,1.65,0,0,0-1.08-.31,1.38,1.38,0,0,0-.83.24A.74.74,0,0,0,217.92,180.14Zm-5.4-5.06h.82v2l0,.61h0a1.6,1.6,0,0,1,.58-.54,1.69,1.69,0,0,1,.81-.21,1.61,1.61,0,0,1,1.24.46,1.83,1.83,0,0,1,.43,1.31v2.75h-.82v-2.59c0-.79-.35-1.18-1.05-1.18a1.1,1.1,0,0,0-.85.41,1.56,1.56,0,0,0-.34,1v2.38h-.82Zm-2.47,6.4h-.83V177.1H210v.72h0a1.21,1.21,0,0,1,.51-.6,1.47,1.47,0,0,1,.77-.24,1.59,1.59,0,0,1,.61.1l-.26.8a1.36,1.36,0,0,0-.48-.06,1.06,1.06,0,0,0-.81.37,1.29,1.29,0,0,0-.34.88Zm-5-2.71h2.52a1.13,1.13,0,0,0-.37-.76,1.33,1.33,0,0,0-.91-.3,1.18,1.18,0,0,0-.8.29A1.35,1.35,0,0,0,205.08,178.77Zm1.32,2.86a2.06,2.06,0,0,1-1.59-.67,2.31,2.31,0,0,1-.63-1.67,2.37,2.37,0,0,1,.61-1.67,2,2,0,0,1,1.55-.66,2,2,0,0,1,1.56.63,2.55,2.55,0,0,1,.57,1.77v.09H205a1.43,1.43,0,0,0,.43,1,1.33,1.33,0,0,0,1,.39,1.38,1.38,0,0,0,1.24-.78l.73.36a2.22,2.22,0,0,1-.82.87A2.31,2.31,0,0,1,206.4,181.63Zm-6.32-3v2.11h1.66a1.05,1.05,0,0,0,.76-.32,1,1,0,0,0,.3-.74,1,1,0,0,0-.31-.73,1.07,1.07,0,0,0-.79-.32Zm0-2.72v1.95h1.49a1,1,0,0,0,.74-.29.94.94,0,0,0,.29-.69,1,1,0,0,0-.28-.68.94.94,0,0,0-.71-.29Zm-.82,5.61v-6.4h2.31a1.88,1.88,0,0,1,1.31.5,1.62,1.62,0,0,1,.55,1.24,1.36,1.36,0,0,1-.87,1.34v0a1.55,1.55,0,0,1,1.08,1.47,1.68,1.68,0,0,1-.57,1.3,1.92,1.92,0,0,1-1.37.52Z"/><path class="cls-10" d="M207.38,124.66h-.83v-4.39h.79V121h0a1.16,1.16,0,0,1,.51-.6,1.44,1.44,0,0,1,.76-.24,1.59,1.59,0,0,1,.61.1l-.25.8a1.4,1.4,0,0,0-.48-.06,1.06,1.06,0,0,0-.81.37,1.26,1.26,0,0,0-.34.88Zm-1.9-4.39v4.39h-.83v-4.39Zm.17-1.51a.58.58,0,0,1-.58.58.59.59,0,0,1-.42-.17.61.61,0,0,1,0-.82.55.55,0,0,1,.42-.17.53.53,0,0,1,.41.17A.57.57,0,0,1,205.65,118.76Zm-4.28,8a2.61,2.61,0,0,1-.69-.09,2.11,2.11,0,0,1-.59-.27,1.9,1.9,0,0,1-.45-.4,1.63,1.63,0,0,1-.28-.52l.77-.32a1.26,1.26,0,0,0,.47.62,1.5,1.5,0,0,0,1.82-.17,1.57,1.57,0,0,0,.37-1.11v-.42h0a1.77,1.77,0,0,1-.63.55,2,2,0,0,1-.87.2,1.92,1.92,0,0,1-1.47-.67,2.42,2.42,0,0,1-.61-1.67,2.36,2.36,0,0,1,.61-1.65,1.93,1.93,0,0,1,1.47-.68,2,2,0,0,1,.87.2,1.68,1.68,0,0,1,.63.55h0v-.61h.79v4.2a2.21,2.21,0,0,1-.6,1.65A2.16,2.16,0,0,1,201.37,126.73Zm0-2.68a1.28,1.28,0,0,0,1-.44,1.61,1.61,0,0,0,.4-1.15,1.59,1.59,0,0,0-.4-1.13,1.25,1.25,0,0,0-1-.45,1.3,1.3,0,0,0-1,.45,1.81,1.81,0,0,0,0,2.27A1.3,1.3,0,0,0,201.4,124.05Zm-4.32,2.63a1.21,1.21,0,0,1-.48-.09l.21-.72a.69.69,0,0,0,.25.06c.33,0,.5-.21.51-.62v-5h.83v4.91Q198.4,126.68,197.08,126.68Zm1.49-7.92a.58.58,0,0,1-.58.58.59.59,0,0,1-.42-.17.61.61,0,0,1,0-.82.55.55,0,0,1,.42-.17.53.53,0,0,1,.41.17A.57.57,0,0,1,198.57,118.76Zm-4,1.37a2,2,0,0,1,1.44.49,1.72,1.72,0,0,1,.52,1.33v2.71h-.78v-.61h0a1.57,1.57,0,0,1-1.36.75,1.76,1.76,0,0,1-1.21-.43,1.34,1.34,0,0,1-.49-1.07,1.32,1.32,0,0,1,.51-1.09,2.26,2.26,0,0,1,1.38-.4,2.43,2.43,0,0,1,1.21.27v-.19a1,1,0,0,0-.34-.73,1.19,1.19,0,0,0-.8-.3,1.23,1.23,0,0,0-1.09.59l-.73-.46A2,2,0,0,1,194.61,120.13Zm-1.07,3.19a.65.65,0,0,0,.27.53,1,1,0,0,0,.64.22,1.3,1.3,0,0,0,.93-.39,1.2,1.2,0,0,0,.41-.9,1.67,1.67,0,0,0-1.08-.31,1.38,1.38,0,0,0-.83.24A.71.71,0,0,0,193.54,123.32Zm-4.76,1.34H188v-6.41h2.18a2,2,0,0,1,1.42.55,1.8,1.8,0,0,1,.59,1.36,1.76,1.76,0,0,1-.44,1.17,1.91,1.91,0,0,1-1.09.66l0,0,1.81,2.6v0h-1l-1.73-2.6h-.91Zm0-5.62v2.25h1.32A1.18,1.18,0,0,0,191,121a1,1,0,0,0,.35-.8,1.14,1.14,0,0,0-.32-.79,1.11,1.11,0,0,0-.82-.33Z"/><path class="cls-9" d="M192.12,100.78a2,2,0,0,1,1.44.49,1.7,1.7,0,0,1,.52,1.33v2.7h-.78v-.6h0a1.57,1.57,0,0,1-1.36.75,1.79,1.79,0,0,1-1.21-.43,1.4,1.4,0,0,1-.49-1.07,1.3,1.3,0,0,1,.52-1.09,2.15,2.15,0,0,1,1.37-.4,2.43,2.43,0,0,1,1.21.27v-.19a1,1,0,0,0-.34-.73,1.17,1.17,0,0,0-.8-.3,1.25,1.25,0,0,0-1.09.58l-.73-.45A2,2,0,0,1,192.12,100.78ZM191.05,104a.65.65,0,0,0,.27.54,1.05,1.05,0,0,0,.65.21,1.29,1.29,0,0,0,.92-.38,1.22,1.22,0,0,0,.41-.9,1.67,1.67,0,0,0-1.08-.31,1.38,1.38,0,0,0-.83.24A.71.71,0,0,0,191.05,104Zm-1.63-3v4.38h-.82v-4.38Zm.17-1.51a.53.53,0,0,1-.17.41.58.58,0,1,1-.82-.82.56.56,0,0,1,.82,0A.53.53,0,0,1,189.59,99.41Zm-3.49,5.89h-.82v-4.38h.79v.72h0a1.15,1.15,0,0,1,.52-.6,1.37,1.37,0,0,1,.76-.25,1.58,1.58,0,0,1,.61.11l-.25.8a1.4,1.4,0,0,0-.48-.06,1.06,1.06,0,0,0-.81.37,1.26,1.26,0,0,0-.35.88Zm-5.17-2.19a1.65,1.65,0,0,0,.41,1.15,1.37,1.37,0,0,0,1,.44,1.34,1.34,0,0,0,1-.44,1.61,1.61,0,0,0,.41-1.15,1.54,1.54,0,0,0-.41-1.13,1.38,1.38,0,0,0-2,0A1.58,1.58,0,0,0,180.93,103.11Zm-.82,0a2.33,2.33,0,0,1,.63-1.67,2.17,2.17,0,0,1,1.62-.66,2.13,2.13,0,0,1,1.61.66,2.3,2.3,0,0,1,.65,1.67,2.27,2.27,0,0,1-.65,1.67,2.11,2.11,0,0,1-1.61.67,2.14,2.14,0,0,1-1.62-.67A2.33,2.33,0,0,1,180.11,103.11Zm-3.94-.53h2.51a1,1,0,0,0-.37-.75,1.28,1.28,0,0,0-.89-.3,1.17,1.17,0,0,0-.8.28A1.34,1.34,0,0,0,176.17,102.58Zm1.32,2.87a2.08,2.08,0,0,1-1.6-.67,2.32,2.32,0,0,1-.62-1.67,2.39,2.39,0,0,1,.61-1.67,2,2,0,0,1,1.55-.66,2,2,0,0,1,1.56.63,2.55,2.55,0,0,1,.57,1.77v.09h-3.44a1.39,1.39,0,0,0,2.65.64l.73.36a2.13,2.13,0,0,1-.82.86A2.24,2.24,0,0,1,177.49,105.45Zm-7.06-5.77v4.84h1.14A2.24,2.24,0,0,0,174,102.1a2.39,2.39,0,0,0-.65-1.77,2.37,2.37,0,0,0-1.76-.65Zm-.82,5.62V98.9h2a3.21,3.21,0,0,1,2.36.88,3.47,3.47,0,0,1,0,4.64,3.21,3.21,0,0,1-2.36.88Z"/><path class="cls-9" d="M136.65,85v4.39h-.83V85Zm.17-1.51a.57.57,0,0,1-.17.41.54.54,0,0,1-.41.18.56.56,0,0,1-.42-.18.58.58,0,0,1,0-.82.59.59,0,0,1,.42-.17.58.58,0,0,1,.58.58ZM130.9,83h.83v2l0,.61h0a1.37,1.37,0,0,1,.58-.53,1.54,1.54,0,0,1,.81-.22,1.6,1.6,0,0,1,1.23.46,1.85,1.85,0,0,1,.44,1.31v2.76H134v-2.6c0-.79-.34-1.18-1-1.18a1.06,1.06,0,0,0-.85.42,1.47,1.47,0,0,0-.34,1v2.39h-.83Zm-1,0v6.41h-.82V83Zm-5,3.69h2.52a1.09,1.09,0,0,0-.37-.76,1.3,1.3,0,0,0-.9-.3,1.19,1.19,0,0,0-.8.29A1.36,1.36,0,0,0,124.93,86.7Zm1.32,2.86a2.1,2.1,0,0,1-1.59-.66,2.33,2.33,0,0,1-.63-1.67,2.4,2.4,0,0,1,.61-1.67,2.19,2.19,0,0,1,3.11,0,2.55,2.55,0,0,1,.57,1.77v.09h-3.45a1.46,1.46,0,0,0,.43,1,1.39,1.39,0,0,0,1,.39,1.36,1.36,0,0,0,1.23-.79l.74.36a2.17,2.17,0,0,1-.83.87A2.21,2.21,0,0,1,126.25,89.56Zm-7-5.76v4.83h1.14a2.22,2.22,0,0,0,2.4-2.42,2.35,2.35,0,0,0-.64-1.76,2.39,2.39,0,0,0-1.76-.65Zm-.82,5.62V83h2a3.19,3.19,0,0,1,2.35.89,3.47,3.47,0,0,1,0,4.64,3.22,3.22,0,0,1-2.35.88Z"/><path class="cls-10" d="M98.29,106.14a2.06,2.06,0,0,1,1.44.49,1.76,1.76,0,0,1,.53,1.34v2.7h-.79v-.6h0a1.56,1.56,0,0,1-1.35.75,1.82,1.82,0,0,1-1.22-.43,1.4,1.4,0,0,1-.48-1.08,1.31,1.31,0,0,1,.51-1.08,2.17,2.17,0,0,1,1.37-.4,2.38,2.38,0,0,1,1.21.27v-.19a.92.92,0,0,0-.34-.73,1.15,1.15,0,0,0-.79-.3,1.27,1.27,0,0,0-1.1.58l-.72-.46A2,2,0,0,1,98.29,106.14Zm-1.06,3.19a.65.65,0,0,0,.27.54,1,1,0,0,0,.64.21,1.31,1.31,0,0,0,.92-.38,1.19,1.19,0,0,0,.41-.91,1.68,1.68,0,0,0-1.07-.3,1.41,1.41,0,0,0-.84.24A.72.72,0,0,0,97.23,109.33Zm-1.63-3v4.38h-.82v-4.38Zm.17-1.51a.58.58,0,0,1-.17.41.57.57,0,0,1-.42.17.56.56,0,0,1-.4-.17.55.55,0,0,1-.18-.41.56.56,0,0,1,.18-.42.55.55,0,0,1,.4-.16.57.57,0,0,1,.42.16A.59.59,0,0,1,95.77,104.78Zm-5.92,1.51h.79v.61h0a1.36,1.36,0,0,1,.57-.54,1.7,1.7,0,0,1,.81-.22,1.61,1.61,0,0,1,1.24.47,1.82,1.82,0,0,1,.44,1.31v2.75h-.83V108a1,1,0,0,0-1.08-1.07,1,1,0,0,0-.82.4,1.43,1.43,0,0,0-.33,1v2.42h-.83Zm-4.34,2.19a1.59,1.59,0,0,0,.4,1.14,1.34,1.34,0,0,0,1,.45,1.31,1.31,0,0,0,1-.45,1.56,1.56,0,0,0,.42-1.14,1.61,1.61,0,0,0-.42-1.14,1.34,1.34,0,0,0-1-.44,1.4,1.4,0,0,0-1,.44A1.64,1.64,0,0,0,85.51,108.48Zm-.83,0a2.29,2.29,0,0,1,.64-1.67,2.28,2.28,0,0,1,3.23,0,2.51,2.51,0,0,1,0,3.35,2.31,2.31,0,0,1-3.23,0A2.32,2.32,0,0,1,84.68,108.48ZM84,104.27v6.4h-.82v-6.4Zm-1.89,2v4.38h-.82v-4.38Zm.17-1.51a.58.58,0,0,1-.17.41.59.59,0,0,1-.42.17.56.56,0,0,1-.4-.17.55.55,0,0,1-.18-.41.56.56,0,0,1,.18-.42.55.55,0,0,1,.4-.16.58.58,0,0,1,.42.16A.59.59,0,0,1,82.25,104.78Zm-3.3.27v5.62h-.83v-5.62H76.33v-.78h4.41v.78Z"/><path class="cls-9" d="M78.06,152.23a1.93,1.93,0,0,1-1.47-.68,2.56,2.56,0,0,1,0-3.32,1.93,1.93,0,0,1,1.47-.68,1.84,1.84,0,0,1,.88.21,1.64,1.64,0,0,1,.62.54h0l0-.6v-2h.82v6.4h-.79v-.61h0a1.58,1.58,0,0,1-.62.55A1.84,1.84,0,0,1,78.06,152.23Zm.14-.76a1.24,1.24,0,0,0,1-.44,1.6,1.6,0,0,0,.4-1.14,1.64,1.64,0,0,0-.4-1.14,1.27,1.27,0,0,0-1-.45,1.29,1.29,0,0,0-1,.45,1.64,1.64,0,0,0-.4,1.14,1.62,1.62,0,0,0,.4,1.14A1.31,1.31,0,0,0,78.2,151.47Zm-4.83-3.92a2,2,0,0,1,1.44.49,1.75,1.75,0,0,1,.53,1.34v2.7h-.78v-.61h0a1.58,1.58,0,0,1-1.36.76A1.79,1.79,0,0,1,72,151.8a1.38,1.38,0,0,1-.49-1.08,1.31,1.31,0,0,1,.51-1.08,2.2,2.2,0,0,1,1.38-.41,2.43,2.43,0,0,1,1.21.27v-.18a1,1,0,0,0-.34-.73,1.19,1.19,0,0,0-.8-.3,1.24,1.24,0,0,0-1.09.58l-.73-.46A2,2,0,0,1,73.37,147.55Zm-1.06,3.19a.68.68,0,0,0,.27.54,1,1,0,0,0,.64.21,1.33,1.33,0,0,0,.93-.38,1.23,1.23,0,0,0,.41-.91,1.73,1.73,0,0,0-1.08-.3,1.38,1.38,0,0,0-.83.24A.71.71,0,0,0,72.31,150.74Zm-3.57.73a1.31,1.31,0,0,0,1-.44,1.62,1.62,0,0,0,.4-1.14,1.64,1.64,0,0,0-.4-1.14,1.33,1.33,0,0,0-2,0,1.64,1.64,0,0,0-.4,1.14,1.6,1.6,0,0,0,.4,1.14A1.28,1.28,0,0,0,68.74,151.47Zm.13.76A1.87,1.87,0,0,1,68,152a1.55,1.55,0,0,1-.61-.55h0v.61h-.78v-6.4h.82v2l0,.6h0a1.61,1.61,0,0,1,.61-.54,1.87,1.87,0,0,1,.88-.21,1.9,1.9,0,0,1,1.47.68,2.44,2.44,0,0,1,.62,1.66,2.41,2.41,0,0,1-.62,1.66A1.9,1.9,0,0,1,68.87,152.23Zm-5.21-4.68a2,2,0,0,1,1.43.49,1.72,1.72,0,0,1,.54,1.34v2.7h-.79v-.61h0a1.58,1.58,0,0,1-1.36.76,1.81,1.81,0,0,1-1.21-.43,1.38,1.38,0,0,1-.49-1.08,1.29,1.29,0,0,1,.52-1.08,2.15,2.15,0,0,1,1.37-.41,2.43,2.43,0,0,1,1.21.27v-.18a1,1,0,0,0-.34-.73,1.17,1.17,0,0,0-.8-.3,1.25,1.25,0,0,0-1.09.58l-.73-.46A2,2,0,0,1,63.66,147.55Zm-1.07,3.19a.68.68,0,0,0,.27.54,1.05,1.05,0,0,0,.65.21,1.33,1.33,0,0,0,.92-.38,1.23,1.23,0,0,0,.41-.91,1.73,1.73,0,0,0-1.08-.3,1.38,1.38,0,0,0-.83.24A.71.71,0,0,0,62.59,150.74Zm-3.87,1.49a2,2,0,0,1-1.48-.68,2.56,2.56,0,0,1,0-3.32,2,2,0,0,1,1.48-.68,1.87,1.87,0,0,1,.88.21,1.54,1.54,0,0,1,.61.54h0l0-.6v-2H61v6.4h-.78v-.61h0a1.49,1.49,0,0,1-.61.55A1.87,1.87,0,0,1,58.72,152.23Zm.13-.76a1.23,1.23,0,0,0,1-.44,1.61,1.61,0,0,0,.41-1.14,1.64,1.64,0,0,0-.41-1.14,1.25,1.25,0,0,0-1-.45,1.28,1.28,0,0,0-1,.45,1.64,1.64,0,0,0-.41,1.14,1.63,1.63,0,0,0,.41,1.14A1.31,1.31,0,0,0,58.85,151.47Zm-6.16-2.11h2.52a1.07,1.07,0,0,0-.37-.75,1.31,1.31,0,0,0-.9-.31,1.19,1.19,0,0,0-.8.29A1.39,1.39,0,0,0,52.69,149.36ZM54,152.23a2.14,2.14,0,0,1-1.6-.67,2.57,2.57,0,0,1,0-3.34,2,2,0,0,1,1.55-.67,2,2,0,0,1,1.56.63,2.58,2.58,0,0,1,.58,1.77l0,.09H52.63a1.44,1.44,0,0,0,.43,1,1.4,1.4,0,0,0,2.22-.39L56,151a2.19,2.19,0,0,1-.81.87A2.31,2.31,0,0,1,54,152.23Zm-8.77-.15h-.83V147.7h.79v.6h0a1.5,1.5,0,0,1,.58-.53,1.48,1.48,0,0,1,.77-.22,1.59,1.59,0,0,1,.85.23,1.28,1.28,0,0,1,.54.61,1.72,1.72,0,0,1,1.51-.84,1.47,1.47,0,0,1,1.17.47,1.9,1.9,0,0,1,.41,1.32v2.74h-.82v-2.61a1.4,1.4,0,0,0-.22-.89.93.93,0,0,0-.75-.28,1,1,0,0,0-.8.41,1.44,1.44,0,0,0-.32.95v2.42h-.83v-2.61a1.4,1.4,0,0,0-.22-.89.93.93,0,0,0-.75-.28,1,1,0,0,0-.8.41,1.49,1.49,0,0,0-.32.95Zm-5.67-6.4h.82v2l0,.6h0a1.5,1.5,0,0,1,.58-.53,1.59,1.59,0,0,1,.81-.22A1.63,1.63,0,0,1,43,148a1.81,1.81,0,0,1,.43,1.3v2.76h-.82v-2.59c0-.79-.35-1.19-1.05-1.19a1.08,1.08,0,0,0-.84.42,1.43,1.43,0,0,0-.35,1v2.39h-.82Zm-5.46,6.4H33.2l2.41-6.4h.93l2.42,6.4H38l-.61-1.73H34.74Zm2-5.39L35,149.58h2.13l-1-2.89Z"/><rect class="cls-11" width="300.24" height="300.24"/></g></g></svg>