<svg xmlns="http://www.w3.org/2000/svg" viewBox="0 0 512 379.19"><defs><style>.cls-1{fill:#242462;}</style></defs><title>train-tracks.svg</title><g id="Layer_2" data-name="Layer 2"><g id="Capa_1" data-name="Capa 1"><path class="cls-1" d="M30.48,347.45v31.74h30V347.45h40.17v31.74h30V347.45h40.18v31.74h30V347.45H241v31.74h30V347.45h40.17v31.74h30V347.45h40.18v31.74h30V347.45h40.17v31.74h30V347.45H512v-30H0v30Z"/><path class="cls-1" d="M30.48,123V256.16H0v30H512v-30H481.52V123H512V93H0v30Zm30,0h40.17V256.16H60.48ZM311.17,256.16H271V123h40.17Zm30-133.12h40.18V256.16H341.17ZM241,256.16H200.83V123H241Zm-70.17,0H130.65V123h40.18Zm280.69,0H411.35V123h40.17Z"/><path class="cls-1" d="M60.48,0h-30V31.74H0v30H512v-30H481.52V0h-30V31.74H411.35V0h-30V31.74H341.17V0h-30V31.74H271V0H241V31.74H200.83V0h-30V31.74H130.65V0h-30V31.74H60.48Z"/></g></g></svg>